<svg width="2048" height="2731" viewBox="0 0 2048 2731" fill="none" xmlns="http://www.w3.org/2000/svg">
<path d="M939.866 923.6C938.533 925.067 937.866 930.667 937.466 941.6L937.066 957.467L942.8 962.933C950.4 969.867 977.466 983.067 992 986.933C998.266 988.533 1003.6 990 1003.87 990.133C1004.13 990.4 1001.87 993.333 998.933 996.667C992 1004.53 988.8 1014 989.733 1023.33C990.666 1032.13 995.733 1042.27 1001.87 1047.73C1006.67 1052 1017.6 1056 1024 1056C1030.4 1056 1041.33 1052 1046.13 1047.73C1052.27 1042.27 1057.33 1032.13 1058.27 1023.33C1059.2 1014 1056 1004.53 1049.07 996.667C1046.13 993.333 1043.87 990.4 1044.13 990.133C1044.4 990 1049.73 988.533 1056 986.933C1070.53 983.067 1097.6 969.867 1105.2 962.933L1110.93 957.467L1110.53 941.6C1109.87 919.333 1108.13 917.867 1092.27 925.867C1073.6 935.2 1042.53 943.067 1024 943.067C1005.47 943.067 974.4 935.2 955.733 925.867C945.6 920.8 942.533 920.267 939.866 923.6ZM1033.33 993.333C1043.07 996 1051.87 1008.53 1052 1019.47C1052 1027.33 1048.53 1036.4 1043.2 1041.87C1040.67 1044.53 1038 1046.67 1037.33 1046.67C1036.67 1046.67 1038 1043.2 1040.13 1038.93C1044.27 1030.8 1044.8 1026.8 1042.67 1022.53C1039.2 1016.13 1031.2 1022.53 1032.8 1030.4C1033.73 1034.8 1031.2 1040.27 1026.8 1043.6C1023.33 1046.27 1021.87 1045.6 1018 1040C1014.67 1035.2 1014.53 1034.27 1016 1030.67C1019.33 1022.67 1013.6 1015.6 1007.87 1020.8C1004.27 1024.13 1004.53 1032.8 1008.67 1040.53C1012.53 1047.87 1011.2 1048.4 1004.8 1041.87C996.4 1033.2 993.733 1019.07 998.533 1008.53C1004.67 995.067 1018.4 989.067 1033.33 993.333Z" fill="black"/>
<path d="M1033.33 993.333C1043.07 996 1051.87 1008.53 1052 1019.47C1052 1027.33 1048.53 1036.4 1043.2 1041.87C1040.67 1044.53 1038 1046.67 1037.33 1046.67C1036.67 1046.67 1038 1043.2 1040.13 1038.93C1044.27 1030.8 1044.8 1026.8 1042.67 1022.53C1039.2 1016.13 1031.2 1022.53 1032.8 1030.4C1033.73 1034.8 1031.2 1040.27 1026.8 1043.6C1023.33 1046.27 1021.87 1045.6 1018 1040C1014.67 1035.2 1014.53 1034.27 1016 1030.67C1019.33 1022.67 1013.6 1015.6 1007.87 1020.8C1004.27 1024.13 1004.53 1032.8 1008.67 1040.53C1012.53 1047.87 1011.2 1048.4 1004.8 1041.87C996.4 1033.2 993.733 1019.07 998.533 1008.53C1004.67 995.067 1018.4 989.067 1033.33 993.333Z" fill="#CDE4F9"/>
<path d="M908.833 969.071C886.033 975.071 862.566 985.471 854.3 993.071C850.166 996.804 845.633 999.204 836.166 1002.27C807.366 1011.6 761.366 1037.6 686.833 1086.4C656.166 1106.54 643.233 1114.54 623.9 1125.6C620.166 1127.74 617.233 1130.4 616.833 1132.14C615.633 1136.94 625.9 1166.54 634.033 1181.6C654.433 1219.47 688.566 1258.8 730.433 1292.54C741.9 1301.74 762.833 1315.74 765.233 1315.74C766.433 1315.74 776.166 1307.47 787.9 1296.4C792.566 1292 797.1 1288.14 797.766 1287.87C798.833 1287.47 798.966 1292.54 798.433 1304.54L797.5 1321.6L789.766 1329.74C777.766 1342.14 760.433 1365.6 732.566 1407.07C713.633 1435.2 694.166 1460.14 641.633 1523.6C563.633 1617.74 560.033 1621.87 513.9 1669.07C488.966 1694.4 489.9 1692.14 494.7 1715.07C501.366 1746.8 518.966 1778.67 539.5 1796.4L546.7 1802.67L543.366 1808.54L539.9 1814.4L543.366 1820.4C553.9 1838.4 586.3 1864.67 613.633 1877.6C640.3 1890.27 661.633 1895.6 689.766 1896.67L709.233 1897.47L708.566 1901.6C707.9 1905.47 708.433 1906.27 716.033 1911.47C725.233 1918 733.366 1921.87 752.033 1928.27C779.633 1937.87 801.1 1941.6 830.166 1941.6C849.9 1941.6 852.833 1941.34 868.7 1937.34C878.166 1934.94 888.566 1931.87 891.9 1930.4C895.1 1928.94 898.3 1927.74 898.966 1927.74C899.5 1927.74 899.9 1934.14 899.766 1942L899.5 1956.4L910.833 1964C917.1 1968.27 928.7 1974.8 936.566 1978.8L950.966 1985.74L940.833 1985.34C919.366 1984.14 881.9 1988.67 852.833 1995.87C824.033 2002.94 788.566 2017.47 776.966 2026.8L773.1 2029.87L777.366 2051.87C779.766 2063.87 784.3 2085.87 787.633 2100.54C790.833 2115.34 793.5 2128.4 793.5 2129.47C793.5 2130.67 794.7 2132.4 796.166 2133.47C799.366 2135.74 806.7 2164 813.5 2200.4C820.833 2238.94 846.7 2368.14 848.166 2373.07C850.166 2379.87 849.9 2380.54 845.233 2382.4C836.833 2385.74 807.1 2402.4 798.966 2408.4C793.233 2412.67 789.5 2414.4 786.433 2414.4C784.033 2414.4 778.166 2415.74 773.366 2417.34C762.966 2420.8 750.3 2432.4 748.833 2439.87C748.033 2443.6 745.9 2445.87 735.9 2453.07C729.366 2457.87 719.9 2466.14 714.833 2471.34C709.633 2476.67 704.966 2481.07 704.3 2481.07C701.1 2481.07 682.7 2497.74 674.833 2507.6C658.566 2528.14 650.566 2545.2 644.566 2571.74C641.5 2585.74 641.633 2614.4 644.966 2627.07C647.233 2635.47 648.033 2636.67 652.833 2639.34C668.966 2648.4 727.233 2667.6 758.166 2674C772.7 2676.94 778.166 2677.34 819.5 2678C856.3 2678.54 868.966 2678.27 886.833 2676.54C924.166 2672.67 950.433 2666.54 980.833 2654.4C999.9 2646.8 1005.5 2644.14 1016.43 2637.34L1024.17 2632.67L1031.77 2637.34C1042.83 2644.14 1048.43 2646.8 1067.5 2654.4C1097.9 2666.54 1124.17 2672.67 1161.5 2676.54C1179.37 2678.27 1192.03 2678.54 1228.83 2678C1270.17 2677.34 1275.63 2676.94 1290.17 2674C1321.1 2667.6 1379.37 2648.4 1395.5 2639.34C1400.3 2636.67 1401.1 2635.47 1403.37 2627.07C1406.7 2614.4 1406.83 2585.74 1403.77 2571.74C1397.77 2545.2 1389.77 2528.14 1373.5 2507.6C1365.63 2497.74 1347.23 2481.07 1344.03 2481.07C1343.37 2481.07 1338.7 2476.67 1333.5 2471.47C1328.43 2466.14 1318.97 2457.87 1312.43 2453.07C1302.43 2445.87 1300.3 2443.6 1299.5 2439.87C1298.03 2432.4 1285.37 2420.8 1274.97 2417.34C1270.17 2415.74 1264.3 2414.4 1261.9 2414.4C1258.83 2414.4 1255.1 2412.67 1249.37 2408.4C1241.23 2402.4 1211.5 2385.74 1203.23 2382.4C1198.43 2380.54 1198.17 2379.87 1200.17 2373.07C1201.63 2368.14 1227.5 2238.94 1234.83 2200.4C1241.63 2164 1248.97 2135.74 1252.17 2133.47C1253.63 2132.4 1254.83 2130.67 1254.83 2129.47C1254.83 2128.4 1257.5 2115.34 1260.7 2100.54C1264.03 2085.87 1268.57 2063.87 1270.97 2051.87L1275.23 2029.87L1271.37 2026.8C1259.77 2017.47 1224.3 2002.94 1195.5 1995.87C1166.43 1988.67 1128.97 1984.14 1107.5 1985.34L1097.37 1985.74L1111.77 1978.8C1119.63 1974.8 1131.23 1968.27 1137.5 1964L1148.83 1956.4L1148.57 1942C1148.43 1934.14 1148.83 1927.74 1149.37 1927.74C1150.03 1927.74 1153.23 1928.94 1156.43 1930.4C1159.77 1931.87 1170.17 1934.94 1179.63 1937.34C1195.5 1941.34 1198.43 1941.6 1218.17 1941.6C1247.23 1941.6 1268.7 1937.87 1296.3 1928.27C1314.97 1921.87 1323.1 1918 1332.3 1911.47C1339.9 1906.27 1340.43 1905.47 1339.77 1901.6L1339.1 1897.47L1358.57 1896.67C1386.7 1895.6 1408.03 1890.27 1434.7 1877.6C1462.03 1864.67 1494.43 1838.4 1504.97 1820.4L1508.43 1814.4L1504.97 1808.54L1501.63 1802.67L1508.83 1796.4C1529.37 1778.67 1546.97 1746.8 1553.63 1715.07C1558.43 1692.14 1559.37 1694.4 1534.43 1669.07C1496.43 1630.14 1481.1 1613.34 1449.37 1575.07C1355.63 1462.27 1337.77 1439.74 1315.77 1407.07C1287.9 1365.6 1270.57 1342.14 1258.57 1329.74L1250.83 1321.6L1249.9 1304.54C1249.37 1292.54 1249.5 1287.47 1250.57 1287.87C1251.23 1288.14 1255.77 1292 1260.43 1296.4C1272.17 1307.47 1281.9 1315.74 1283.1 1315.74C1285.5 1315.74 1306.43 1301.74 1317.9 1292.54C1359.77 1258.8 1393.9 1219.47 1414.3 1181.6C1422.43 1166.54 1432.7 1136.94 1431.5 1132.14C1431.1 1130.4 1428.17 1127.74 1424.43 1125.6C1405.1 1114.54 1392.17 1106.54 1361.5 1086.4C1286.97 1037.6 1240.97 1011.6 1212.17 1002.27C1202.7 999.204 1198.17 996.804 1194.03 993.071C1190.97 990.271 1183.9 985.871 1178.17 983.071C1165.23 977.071 1138.57 968.004 1131.63 967.471C1123.5 966.804 1123.1 968.671 1126.7 988.804C1128.57 999.204 1129.5 1007.6 1128.97 1009.87C1126.43 1019.47 1100.83 1051.07 1085.23 1063.34C1074.17 1072.14 1049.77 1086.94 1040.3 1090.54C1030.3 1094.27 1018.03 1094.27 1008.03 1090.54C998.566 1086.94 974.166 1072.14 963.1 1063.34C947.5 1051.07 921.9 1019.47 919.366 1009.87C918.833 1007.6 919.766 999.204 921.633 988.804C925.766 965.604 925.233 964.671 908.833 969.071ZM915.366 984.004C910.966 1008.14 908.166 1025.2 906.966 1035.07C905.1 1049.07 902.7 1108.27 902.7 1140.4C902.7 1196.4 897.766 1219.2 882.7 1233.2C872.566 1242.8 861.766 1244.67 850.166 1239.2C841.366 1235.07 835.9 1229.07 830.3 1217.6C819.633 1195.6 815.9 1176.54 815.9 1145.07C816.033 1110.54 820.166 1085.07 830.966 1052.54C837.366 1033.47 851.233 1006.4 858.566 998.804C863.9 993.337 878.166 986.404 897.5 979.737C918.566 972.671 917.5 972.404 915.366 984.004ZM1148.97 979.204C1167.9 985.471 1184.43 993.337 1189.63 998.804C1197.1 1006.4 1210.97 1033.34 1217.37 1052.54C1228.17 1085.07 1232.3 1110.54 1232.43 1145.07C1232.43 1176.54 1228.7 1195.6 1218.03 1217.6C1212.43 1229.07 1206.97 1235.07 1198.17 1239.2C1186.57 1244.67 1175.77 1242.8 1165.63 1233.2C1150.57 1219.2 1145.63 1196.4 1145.63 1140.4C1145.63 1108.27 1143.23 1049.07 1141.37 1035.07C1140.17 1025.2 1137.37 1008.14 1132.97 984.004C1131.63 976.671 1131.63 974.404 1132.83 974.404C1133.77 974.404 1140.97 976.537 1148.97 979.204ZM837.366 1018.67C827.1 1038.94 817.1 1070.54 812.833 1095.74C811.366 1104.4 808.966 1111.87 805.5 1119.34C784.433 1163.74 782.033 1196 794.833 1263.47C798.033 1280.14 798.033 1278.67 794.7 1280.8C792.166 1282.4 790.833 1281.6 779.1 1272.14C754.7 1252.67 728.7 1224.4 713.5 1201.07C702.7 1184.4 686.433 1151.47 677.9 1129.07C677.391 1127.73 676.887 1126.39 676.395 1125.09C673.276 1116.85 670.627 1109.84 670.166 1108.8C669.5 1107.07 674.3 1103.2 693.1 1090.67C706.166 1082 725.5 1069.6 736.166 1063.07C746.833 1056.54 760.966 1048 767.5 1044C792.966 1028.4 834.7 1008 841.233 1007.74C842.166 1007.74 840.7 1012 837.366 1018.67ZM1222.57 1013.6C1237.9 1019.87 1261.63 1032.27 1280.83 1044C1287.5 1048 1301.5 1056.54 1312.17 1063.07C1322.83 1069.6 1342.17 1082 1355.23 1090.67C1374.03 1103.2 1378.83 1107.07 1378.17 1108.8C1377.71 1109.84 1375.06 1116.85 1371.94 1125.1C1371.44 1126.4 1370.94 1127.73 1370.43 1129.07C1361.9 1151.47 1345.63 1184.4 1334.83 1201.07C1319.63 1224.4 1293.63 1252.67 1269.23 1272.14C1257.5 1281.6 1256.17 1282.4 1253.63 1280.8C1250.3 1278.67 1250.3 1280.14 1253.5 1263.47C1266.3 1196 1263.9 1163.74 1242.83 1119.34C1239.37 1111.87 1236.97 1104.4 1235.5 1095.74C1231.23 1070.54 1221.23 1038.94 1210.97 1018.67C1207.9 1012.67 1206.17 1007.74 1206.83 1007.74C1207.63 1007.74 1214.7 1010.4 1222.57 1013.6ZM925.766 1034.4C930.7 1040.67 943.5 1054.94 949.5 1060.8C958.566 1069.74 968.7 1077.07 984.566 1086.27C1004.97 1098.27 1010.57 1100.14 1024.17 1100.14C1037.77 1100.14 1043.37 1098.27 1063.77 1086.27C1079.63 1077.07 1089.77 1069.74 1098.83 1060.8C1111.5 1048.4 1130.7 1025.07 1130.97 1021.87C1131.1 1018.4 1133.37 1026.8 1133.63 1032.14C1133.9 1036.27 1133.1 1039.47 1130.83 1043.2C1115.23 1068.94 1087.77 1094.27 1062.3 1106.4C1050.03 1112.14 1039.5 1114.4 1024.17 1114.4C1008.83 1114.4 998.3 1112.14 986.033 1106.4C960.566 1094.27 933.1 1068.94 917.5 1043.2C914.433 1038 913.9 1033.2 915.633 1024.67L916.433 1021.07L919.766 1026C921.633 1028.8 924.3 1032.54 925.766 1034.4ZM920.833 1057.74C928.566 1068.67 946.966 1087.47 958.033 1095.6C967.366 1102.54 979.9 1109.74 988.033 1113.07L994.033 1115.34L982.7 1116.27C962.166 1118.14 926.7 1127.07 912.966 1134L909.119 1135.99L909.1 1136C909.1 1136 909.031 1138.6 909.119 1135.99C909.205 1133.45 909.44 1125.96 910.033 1106.27C911.233 1066.4 912.433 1046 913.5 1047.34C913.9 1047.87 917.233 1052.54 920.833 1057.74ZM1138.17 1102.8L1139.23 1136L1135.37 1134C1121.63 1127.07 1086.17 1118.14 1065.63 1116.27L1054.3 1115.34L1060.3 1113.07C1068.3 1109.87 1080.97 1102.54 1090.3 1095.6C1101.63 1087.34 1121.1 1067.34 1128.83 1055.87L1135.5 1046.14L1136.3 1057.87C1136.83 1064.4 1137.63 1084.67 1138.17 1102.8ZM670.3 1130.4C680.566 1157.87 695.9 1188.54 710.033 1209.74C723.9 1230.67 747.9 1256.54 770.566 1275.07C782.966 1285.2 784.966 1287.34 783.633 1289.2C781.633 1292 765.366 1306.4 764.166 1306.4C762.033 1306.4 745.233 1294.67 732.166 1283.87C681.233 1242.14 642.566 1192 628.833 1150C626.3 1142 624.166 1135.34 624.166 1135.07C624.166 1134.54 632.433 1129.74 643.5 1123.6C647.9 1121.2 653.9 1117.6 656.833 1115.6C659.766 1113.6 662.566 1112.4 663.1 1112.8C663.633 1113.34 666.833 1121.2 670.3 1130.4ZM1404.83 1123.6C1416.03 1129.74 1424.17 1134.54 1424.17 1135.07C1424.17 1135.34 1422.03 1142 1419.5 1150C1405.77 1192 1367.1 1242.14 1316.17 1283.87C1303.1 1294.67 1286.3 1306.4 1284.17 1306.4C1282.97 1306.4 1266.7 1292 1264.7 1289.2C1263.37 1287.34 1265.37 1285.2 1277.77 1275.07C1300.43 1256.54 1324.43 1230.67 1338.3 1209.74C1351.77 1189.6 1367.9 1157.74 1376.83 1133.74C1379.5 1126.4 1382.57 1118.4 1383.63 1116L1385.5 1111.6L1391.1 1115.47C1394.3 1117.6 1400.43 1121.2 1404.83 1123.6ZM1070.83 1123.87C1089.5 1126 1112.03 1132.14 1135.23 1141.34L1138.83 1142.67V1158.94C1138.83 1188 1142.83 1211.87 1149.63 1225.34C1153.23 1232.54 1162.3 1242.14 1168.17 1244.94C1180.83 1251.34 1192.97 1251.07 1205.77 1244.14C1213.77 1239.74 1218.43 1234.14 1225.23 1220.27C1234.17 1202.27 1238.7 1181.2 1240.03 1151.74L1240.83 1132.4L1245.9 1147.34C1257.37 1181.6 1257.23 1199.6 1244.83 1270.4C1243.5 1277.6 1242.83 1289.07 1242.97 1301.74L1243.23 1321.6L1236.43 1327.87C1218.03 1344.8 1172.57 1362 1113.5 1374.4C1105.77 1376 1098.97 1377.87 1098.3 1378.54C1096.57 1380.14 1124.3 1378.67 1139.5 1376.27C1159.5 1373.34 1200.83 1359.07 1222.83 1347.6C1228.3 1344.8 1235.9 1339.74 1239.77 1336.4C1243.5 1333.07 1247.23 1330.4 1248.03 1330.4C1251.1 1330.4 1273.5 1358.14 1290.97 1383.74C1334.57 1447.47 1348.7 1466 1411.5 1541.74C1425.37 1558.67 1438.97 1575.07 1441.63 1578.4C1444.3 1581.74 1455.9 1595.2 1467.5 1608.4C1486.83 1630.54 1497.37 1642.14 1513.23 1658.67L1519.23 1664.94L1517.63 1673.34C1515.63 1683.07 1507.77 1702.4 1500.57 1714.54C1495.9 1722.54 1471.37 1749.07 1468.7 1749.07C1467.63 1748.94 1444.97 1714 1420.83 1675.2C1411.5 1660.14 1397.63 1636.8 1382.97 1611.07C1378.3 1602.94 1373.23 1594.67 1371.77 1592.54C1370.3 1590.4 1362.57 1576.94 1354.57 1562.54C1339.63 1536 1334.43 1527.74 1332.03 1527.74C1331.37 1527.74 1330.83 1528.8 1330.83 1530.27C1330.83 1533.34 1344.3 1560.8 1355.77 1580.94C1369.1 1604.54 1380.17 1623.74 1384.3 1630.4C1386.3 1633.74 1393.63 1646 1400.57 1657.74C1407.5 1669.47 1419.63 1689.2 1427.5 1701.74C1435.5 1714.14 1448.17 1734.27 1455.77 1746.27L1469.63 1768L1466.3 1772.27C1450.57 1792.94 1419.23 1817.6 1393.63 1829.34C1376.43 1837.2 1341.9 1846.4 1329.37 1846.4H1324.3L1321.37 1836.67C1319.9 1831.47 1316.57 1820.8 1314.17 1813.07C1311.77 1805.34 1307.77 1792.4 1305.5 1784.4C1303.23 1776.27 1299.9 1765.2 1298.17 1759.74C1296.43 1754.27 1294.43 1747.6 1293.77 1745.07C1293.1 1742.54 1290.3 1733.2 1287.77 1724.4C1272.7 1673.6 1261.5 1626.27 1244.03 1539.74C1238.97 1514.4 1233.9 1490.54 1232.7 1486.67C1230.7 1479.74 1228.83 1477.87 1227.37 1481.74C1224.7 1488.54 1248.97 1610.27 1266.17 1676.4C1272.57 1700.8 1274.97 1709.74 1276.7 1715.74C1277.77 1719.07 1280.17 1727.47 1282.17 1734.4C1284.17 1741.34 1287.1 1751.6 1288.83 1757.07C1290.57 1762.54 1296.57 1782.67 1302.3 1801.74C1307.9 1820.8 1313.37 1838.67 1314.3 1841.47L1316.03 1846.4L1298.43 1854.94C1261.77 1872.8 1234.03 1879.07 1191.5 1878.94C1168.83 1878.94 1165.1 1878.67 1156.17 1875.87C1150.7 1874.27 1145.5 1872.14 1144.57 1871.34C1143.63 1870.4 1141.9 1855.6 1140.17 1833.74C1138.57 1813.87 1136.17 1783.34 1134.83 1765.74C1128.03 1679.6 1122.57 1624 1120.83 1621.07C1120.43 1620.4 1119.37 1619.74 1118.57 1619.74C1116.57 1619.74 1118.03 1661.2 1121.5 1701.07C1125.63 1747.6 1130.57 1809.2 1133.5 1848.94C1134.97 1868.27 1136.57 1887.07 1136.97 1890.67C1138.03 1898.67 1137.5 1899.2 1123.37 1907.74C1092.7 1926.4 1053.63 1938.4 1024.17 1938.4C994.7 1938.4 955.633 1926.4 924.966 1907.74C910.833 1899.2 910.3 1898.67 911.366 1890.67C911.766 1887.07 913.366 1868.27 914.833 1848.94C917.766 1809.2 922.7 1747.6 926.833 1701.07C930.3 1661.2 931.766 1619.74 929.766 1619.74C928.966 1619.74 927.9 1620.4 927.5 1621.07C925.766 1624 920.3 1679.6 913.5 1765.74C912.166 1783.34 909.766 1813.87 908.166 1833.74C906.433 1855.6 904.7 1870.4 903.766 1871.34C902.833 1872.14 897.633 1874.27 892.166 1875.87C883.233 1878.67 879.5 1878.94 856.833 1878.94C814.3 1879.07 786.566 1872.8 749.9 1854.94L732.3 1846.4L734.033 1841.47C734.966 1838.67 740.433 1820.8 746.033 1801.74C751.766 1782.67 757.766 1762.54 759.5 1757.07C761.233 1751.6 764.166 1741.34 766.166 1734.4C768.166 1727.47 770.566 1719.07 771.633 1715.74C773.366 1709.74 775.766 1700.8 782.166 1676.4C799.366 1610.27 823.633 1488.54 820.966 1481.74C819.5 1477.87 817.633 1479.74 815.633 1486.67C814.433 1490.54 809.366 1514.4 804.3 1539.74C786.833 1626.27 775.633 1673.6 760.566 1724.4C758.033 1733.2 755.233 1742.54 754.566 1745.07C753.9 1747.6 751.9 1754.27 750.166 1759.74C748.433 1765.2 745.1 1776.27 742.833 1784.4C740.566 1792.4 736.566 1805.34 734.166 1813.07C731.766 1820.8 728.433 1831.47 726.966 1836.67L724.033 1846.4H718.966C706.433 1846.4 671.9 1837.2 654.7 1829.34C629.1 1817.6 597.766 1792.94 582.033 1772.27L578.7 1768L592.566 1746.27C600.166 1734.27 612.833 1714.14 620.833 1701.74C628.7 1689.2 640.833 1669.47 647.766 1657.74C654.7 1646 662.033 1633.74 664.033 1630.4C668.166 1623.74 679.233 1604.54 692.566 1580.94C704.033 1560.8 717.5 1533.34 717.5 1530.27C717.5 1528.8 716.966 1527.74 716.3 1527.74C713.9 1527.74 708.7 1536 693.766 1562.54C685.766 1576.94 678.033 1590.4 676.566 1592.54C675.1 1594.67 670.033 1602.94 665.366 1611.07C650.7 1636.8 636.833 1660.14 627.5 1675.2C603.366 1714 580.7 1748.94 579.633 1749.07C576.966 1749.07 552.433 1722.54 547.766 1714.54C540.566 1702.4 532.7 1683.07 530.7 1673.34L529.1 1664.94L535.1 1658.67C550.966 1642.14 561.5 1630.54 580.833 1608.4C592.433 1595.2 604.033 1581.74 606.7 1578.4C609.366 1575.07 622.966 1558.67 636.833 1541.74C699.633 1466 713.766 1447.47 757.366 1383.74C774.833 1358.14 797.233 1330.4 800.3 1330.4C801.1 1330.4 804.833 1333.07 808.566 1336.4C812.433 1339.74 820.033 1344.8 825.5 1347.6C847.5 1359.07 888.833 1373.34 908.833 1376.27C924.033 1378.67 951.766 1380.14 950.033 1378.54C949.366 1377.87 942.566 1376 934.833 1374.4C875.766 1362 830.3 1344.8 811.9 1327.87L805.1 1321.6L805.366 1301.74C805.5 1289.07 804.833 1277.6 803.5 1270.4C791.1 1199.6 790.966 1181.6 802.433 1147.34L807.5 1132.4L808.3 1151.74C809.633 1181.2 814.166 1202.27 823.1 1220.27C829.9 1234.14 834.566 1239.74 842.566 1244.14C855.366 1251.07 867.5 1251.34 880.166 1244.94C886.033 1242.14 895.1 1232.54 898.7 1225.34C905.5 1211.87 909.5 1188 909.5 1158.8V1142.54L917.233 1139.74C944.966 1129.2 966.433 1124.27 990.433 1122.67C1011.37 1121.34 1055.1 1122 1070.83 1123.87ZM959.1 1996.8C956.966 2007.34 954.566 2040.54 954.433 2062.67L954.166 2090.4H942.833C936.566 2090.4 927.5 2090.8 922.7 2091.2L914.033 2092.14L911.1 2076.94C909.5 2068.54 907.5 2053.87 906.7 2044.4C905.233 2027.74 905.766 1998.54 907.5 1995.74C908.833 1993.47 959.633 1994.54 959.1 1996.8ZM1140.83 1995.74C1142.57 1998.54 1143.1 2027.74 1141.63 2044.4C1140.83 2053.87 1138.83 2068.54 1137.23 2076.94L1134.3 2092.14L1125.63 2091.2C1120.83 2090.8 1111.77 2090.4 1105.5 2090.4H1094.17L1093.9 2062.67C1093.77 2041.2 1091.63 2010.8 1089.37 1997.47C1089.23 1996.94 1089.23 1996 1089.37 1995.34C1089.63 1993.87 1139.9 1994.14 1140.83 1995.74ZM897.9 2024.67C898.833 2058.27 900.7 2072.67 906.3 2091.87C906.833 2093.6 905.633 2094.27 900.966 2094.94C897.633 2095.47 888.833 2097.34 881.233 2099.2C873.766 2100.94 867.233 2102 866.7 2101.47C860.7 2095.47 846.833 2034.54 846.833 2014.14C846.833 2006.8 846.966 2006.54 851.233 2005.34C858.566 2003.07 873.9 1999.6 884.966 1997.74C890.7 1996.8 895.9 1996 896.3 1995.87C896.7 1995.74 897.5 2008.8 897.9 2024.67ZM1011.63 2044.4L1011.5 2087.2H997.233C988.033 2087.07 982.433 2087.6 981.366 2088.67C980.3 2089.74 981.766 2090.4 987.633 2090.94C999.233 2092.27 1010.7 2094.4 1014.3 2096C1017.9 2097.74 1017.9 2097.87 1017.5 2127.07C1017.37 2135.87 1017.1 2218 1016.83 2309.74L1016.17 2476.4L1007.37 2482.54C996.566 2490.14 976.433 2498.67 960.7 2502.67C944.566 2506.67 911.5 2506.94 895.233 2503.2L884.166 2500.67L876.566 2486.8C866.7 2468.67 854.166 2453.34 839.9 2441.74C828.566 2432.54 806.7 2419.74 802.3 2419.74C801.1 2419.74 800.166 2419.07 800.166 2418.4C800.166 2416.27 819.1 2404.54 836.833 2395.6C845.633 2391.2 854.033 2386 855.366 2384.14C857.633 2381.07 857.766 2380 856.433 2373.87C854.3 2364.14 826.433 2224.54 821.5 2198.4C819.233 2186.27 814.966 2166.8 812.033 2155.07C807.233 2135.47 806.966 2133.6 808.966 2132.14C812.166 2129.74 848.966 2115.47 866.166 2110C882.433 2104.8 918.966 2097.07 943.5 2093.6C962.566 2091.07 963.366 2090.54 962.166 2079.07C960.566 2064 964.3 2015.6 968.033 2001.47L969.5 1996.27L990.7 1998.8L1011.9 2001.47L1011.63 2044.4ZM1080.83 2004C1083.77 2015.2 1085.63 2036.54 1086.03 2064C1086.3 2077.87 1087.1 2089.74 1087.63 2090.4C1088.3 2090.94 1096.03 2092.4 1104.83 2093.6C1129.5 2097.07 1165.9 2104.8 1182.17 2110C1199.37 2115.47 1236.17 2129.74 1239.37 2132.14C1241.37 2133.6 1241.1 2135.47 1236.3 2155.07C1233.37 2166.8 1229.1 2186.27 1226.83 2198.4C1221.9 2224.54 1194.03 2364.14 1191.9 2373.87C1190.57 2380 1190.7 2381.07 1192.97 2384.14C1194.3 2386 1202.7 2391.2 1211.5 2395.6C1229.23 2404.54 1248.17 2416.27 1248.17 2418.4C1248.17 2419.07 1247.23 2419.74 1246.03 2419.74C1241.63 2419.74 1219.77 2432.54 1208.43 2441.74C1194.17 2453.34 1181.63 2468.67 1171.77 2486.8L1164.17 2500.67L1153.1 2503.2C1136.83 2506.94 1103.77 2506.67 1087.63 2502.67C1071.9 2498.67 1051.77 2490.14 1040.97 2482.54L1032.17 2476.4L1031.5 2309.74C1031.23 2218 1030.97 2135.87 1030.83 2127.07C1030.43 2097.87 1030.43 2097.74 1034.03 2096C1037.63 2094.4 1049.1 2092.27 1060.7 2090.94C1066.57 2090.4 1068.03 2089.74 1066.97 2088.67C1065.9 2087.6 1060.3 2087.07 1051.1 2087.2H1036.83L1036.7 2044.4L1036.43 2001.47L1057.37 1998.8C1068.83 1997.47 1078.3 1996.4 1078.57 1996.54C1078.83 1996.67 1079.9 2000 1080.83 2004ZM1162.17 1997.74C1169.1 1998.67 1195.63 2004.4 1199.37 2005.87C1202.17 2006.94 1202.17 2015.47 1199.37 2034.27C1196.57 2053.47 1192.97 2069.87 1188.03 2085.34C1182.17 2104 1183.37 2103.2 1167.1 2099.2C1159.63 2097.34 1150.7 2095.47 1147.37 2094.94C1142.7 2094.27 1141.5 2093.6 1142.03 2091.87C1147.63 2072.67 1149.5 2058.27 1150.43 2024.67C1151.1 1998.94 1151.5 1995.74 1153.37 1996.27C1154.57 1996.54 1158.57 1997.2 1162.17 1997.74ZM838.566 2021.34C842.166 2049.6 851.5 2089.47 856.966 2100.14C858.166 2102.27 858.833 2104.14 858.566 2104.4C858.3 2104.67 851.9 2106.94 844.3 2109.47L830.7 2113.87L828.566 2109.87C820.966 2095.07 808.966 2050.4 807.366 2031.07L806.566 2020.27L816.3 2016.54C821.766 2014.54 827.366 2012.4 828.833 2011.74C830.3 2011.07 832.7 2010.54 834.3 2010.54C836.833 2010.4 837.233 2011.47 838.566 2021.34ZM1224.83 2013.87C1230.03 2015.74 1235.9 2018 1238.03 2018.67L1241.77 2020.14L1240.97 2030.94C1239.37 2050.4 1227.37 2095.07 1219.77 2109.87L1217.63 2113.87L1204.03 2109.47C1196.43 2106.94 1190.17 2104.8 1189.9 2104.67C1189.77 2104.4 1191.1 2100.67 1192.83 2096.14C1198.57 2081.87 1207.77 2040.94 1210.17 2018C1211.23 2008.94 1211.5 2008.94 1224.83 2013.87ZM797.9 2031.07C800.166 2048.67 812.566 2093.07 820.3 2111.47L822.833 2117.2L819.766 2118.27C818.166 2118.94 813.366 2121.07 809.233 2122.94C802.3 2126 801.633 2126.14 800.966 2124C797.9 2112.67 784.966 2049.87 783.633 2039.47L782.833 2033.07L789.766 2029.2C793.633 2026.94 796.833 2025.34 796.966 2025.47C797.1 2025.6 797.5 2028.14 797.9 2031.07ZM1264.43 2039.2C1263.9 2047.47 1251.23 2109.87 1247.37 2124C1246.7 2126.14 1246.03 2126 1239.1 2122.94C1234.97 2121.07 1230.17 2118.94 1228.57 2118.27L1225.5 2117.2L1228.03 2111.47C1235.37 2094.14 1241.63 2072.54 1250.17 2034.4C1250.43 2033.34 1250.7 2030.67 1250.7 2028.67L1250.83 2024.8L1257.9 2028.8L1264.83 2032.8L1264.43 2039.2ZM767.366 2453.6C777.5 2458.54 793.9 2471.6 801.633 2481.2C814.3 2496.8 822.833 2515.74 822.833 2528.8C822.833 2536.14 821.633 2537.74 812.3 2542.4C807.633 2544.8 806.3 2544.94 805.366 2543.47C802.966 2539.47 788.3 2523.87 781.5 2518C765.766 2504.4 744.7 2492 725.5 2485.07L715.5 2481.34L723.766 2473.47C732.033 2465.47 754.033 2449.07 756.566 2449.07C757.233 2449.07 762.166 2451.07 767.366 2453.6ZM1304.83 2457.34C1311.23 2461.87 1320.17 2469.2 1324.57 2473.47L1332.83 2481.34L1322.83 2485.07C1303.63 2492 1282.57 2504.4 1266.83 2518C1260.03 2523.87 1245.37 2539.47 1242.97 2543.47C1242.03 2544.94 1240.7 2544.8 1236.03 2542.4C1226.7 2537.74 1225.5 2536.14 1225.5 2528.8C1225.5 2515.74 1234.03 2496.8 1246.7 2481.2C1254.43 2471.74 1270.7 2458.54 1280.83 2453.6C1285.9 2451.2 1290.83 2449.07 1291.63 2449.07C1292.43 2449.07 1298.43 2452.8 1304.83 2457.34Z" fill="black"/>
<path d="M1070.83 1123.87C1089.5 1126 1112.03 1132.14 1135.23 1141.34L1138.83 1142.67V1158.94C1138.83 1188 1142.83 1211.87 1149.63 1225.34C1153.23 1232.54 1162.3 1242.14 1168.17 1244.94C1180.83 1251.34 1192.97 1251.07 1205.77 1244.14C1213.77 1239.74 1218.43 1234.14 1225.23 1220.27C1234.17 1202.27 1238.7 1181.2 1240.03 1151.74L1240.83 1132.4L1245.9 1147.34C1257.37 1181.6 1257.23 1199.6 1244.83 1270.4C1243.5 1277.6 1242.83 1289.07 1242.97 1301.74L1243.23 1321.6L1236.43 1327.87C1218.03 1344.8 1172.57 1362 1113.5 1374.4C1105.77 1376 1098.97 1377.87 1098.3 1378.54C1096.57 1380.14 1124.3 1378.67 1139.5 1376.27C1159.5 1373.34 1200.83 1359.07 1222.83 1347.6C1228.3 1344.8 1235.9 1339.74 1239.77 1336.4C1243.5 1333.07 1247.23 1330.4 1248.03 1330.4C1251.1 1330.4 1273.5 1358.14 1290.97 1383.74C1334.57 1447.47 1348.7 1466 1411.5 1541.74C1425.37 1558.67 1438.97 1575.07 1441.63 1578.4C1444.3 1581.74 1455.9 1595.2 1467.5 1608.4C1486.83 1630.54 1497.37 1642.14 1513.23 1658.67L1519.23 1664.94L1517.63 1673.34C1515.63 1683.07 1507.77 1702.4 1500.57 1714.54C1495.9 1722.54 1471.37 1749.07 1468.7 1749.07C1467.63 1748.94 1444.97 1714 1420.83 1675.2C1411.5 1660.14 1397.63 1636.8 1382.97 1611.07C1378.3 1602.94 1373.23 1594.67 1371.77 1592.54C1370.3 1590.4 1362.57 1576.94 1354.57 1562.54C1339.63 1536 1334.43 1527.74 1332.03 1527.74C1331.37 1527.74 1330.83 1528.8 1330.83 1530.27C1330.83 1533.34 1344.3 1560.8 1355.77 1580.94C1369.1 1604.54 1380.17 1623.74 1384.3 1630.4C1386.3 1633.74 1393.63 1646 1400.57 1657.74C1407.5 1669.47 1419.63 1689.2 1427.5 1701.74C1435.5 1714.14 1448.17 1734.27 1455.77 1746.27L1469.63 1768L1466.3 1772.27C1450.57 1792.94 1419.23 1817.6 1393.63 1829.34C1376.43 1837.2 1341.9 1846.4 1329.37 1846.4H1324.3L1321.37 1836.67C1319.9 1831.47 1316.57 1820.8 1314.17 1813.07C1311.77 1805.34 1307.77 1792.4 1305.5 1784.4C1303.23 1776.27 1299.9 1765.2 1298.17 1759.74C1296.43 1754.27 1294.43 1747.6 1293.77 1745.07C1293.1 1742.54 1290.3 1733.2 1287.77 1724.4C1272.7 1673.6 1261.5 1626.27 1244.03 1539.74C1238.97 1514.4 1233.9 1490.54 1232.7 1486.67C1230.7 1479.74 1228.83 1477.87 1227.37 1481.74C1224.7 1488.54 1248.97 1610.27 1266.17 1676.4C1272.57 1700.8 1274.97 1709.74 1276.7 1715.74C1277.77 1719.07 1280.17 1727.47 1282.17 1734.4C1284.17 1741.34 1287.1 1751.6 1288.83 1757.07C1290.57 1762.54 1296.57 1782.67 1302.3 1801.74C1307.9 1820.8 1313.37 1838.67 1314.3 1841.47L1316.03 1846.4L1298.43 1854.94C1261.77 1872.8 1234.03 1879.07 1191.5 1878.94C1168.83 1878.94 1165.1 1878.67 1156.17 1875.87C1150.7 1874.27 1145.5 1872.14 1144.57 1871.34C1143.63 1870.4 1141.9 1855.6 1140.17 1833.74C1138.57 1813.87 1136.17 1783.34 1134.83 1765.74C1128.03 1679.6 1122.57 1624 1120.83 1621.07C1120.43 1620.4 1119.37 1619.74 1118.57 1619.74C1116.57 1619.74 1118.03 1661.2 1121.5 1701.07C1125.63 1747.6 1130.57 1809.2 1133.5 1848.94C1134.97 1868.27 1136.57 1887.07 1136.97 1890.67C1138.03 1898.67 1137.5 1899.2 1123.37 1907.74C1092.7 1926.4 1053.63 1938.4 1024.17 1938.4C994.7 1938.4 955.633 1926.4 924.966 1907.74C910.833 1899.2 910.3 1898.67 911.366 1890.67C911.766 1887.07 913.366 1868.27 914.833 1848.94C917.766 1809.2 922.7 1747.6 926.833 1701.07C930.3 1661.2 931.766 1619.74 929.766 1619.74C928.966 1619.74 927.9 1620.4 927.5 1621.07C925.766 1624 920.3 1679.6 913.5 1765.74C912.166 1783.34 909.766 1813.87 908.166 1833.74C906.433 1855.6 904.7 1870.4 903.766 1871.34C902.833 1872.14 897.633 1874.27 892.166 1875.87C883.233 1878.67 879.5 1878.94 856.833 1878.94C814.3 1879.07 786.566 1872.8 749.9 1854.94L732.3 1846.4L734.033 1841.47C734.966 1838.67 740.433 1820.8 746.033 1801.74C751.766 1782.67 757.766 1762.54 759.5 1757.07C761.233 1751.6 764.166 1741.34 766.166 1734.4C768.166 1727.47 770.566 1719.07 771.633 1715.74C773.366 1709.74 775.766 1700.8 782.166 1676.4C799.366 1610.27 823.633 1488.54 820.966 1481.74C819.5 1477.87 817.633 1479.74 815.633 1486.67C814.433 1490.54 809.366 1514.4 804.3 1539.74C786.833 1626.27 775.633 1673.6 760.566 1724.4C758.033 1733.2 755.233 1742.54 754.566 1745.07C753.9 1747.6 751.9 1754.27 750.166 1759.74C748.433 1765.2 745.1 1776.27 742.833 1784.4C740.566 1792.4 736.566 1805.34 734.166 1813.07C731.766 1820.8 728.433 1831.47 726.966 1836.67L724.033 1846.4H718.966C706.433 1846.4 671.9 1837.2 654.7 1829.34C629.1 1817.6 597.766 1792.94 582.033 1772.27L578.7 1768L592.566 1746.27C600.166 1734.27 612.833 1714.14 620.833 1701.74C628.7 1689.2 640.833 1669.47 647.766 1657.74C654.7 1646 662.033 1633.74 664.033 1630.4C668.166 1623.74 679.233 1604.54 692.566 1580.94C704.033 1560.8 717.5 1533.34 717.5 1530.27C717.5 1528.8 716.966 1527.74 716.3 1527.74C713.9 1527.74 708.7 1536 693.766 1562.54C685.766 1576.94 678.033 1590.4 676.566 1592.54C675.1 1594.67 670.033 1602.94 665.366 1611.07C650.7 1636.8 636.833 1660.14 627.5 1675.2C603.366 1714 580.7 1748.94 579.633 1749.07C576.966 1749.07 552.433 1722.54 547.766 1714.54C540.566 1702.4 532.7 1683.07 530.7 1673.34L529.1 1664.94L535.1 1658.67C550.966 1642.14 561.5 1630.54 580.833 1608.4C592.433 1595.2 604.033 1581.74 606.7 1578.4C609.366 1575.07 622.966 1558.67 636.833 1541.74C699.633 1466 713.766 1447.47 757.366 1383.74C774.833 1358.14 797.233 1330.4 800.3 1330.4C801.1 1330.4 804.833 1333.07 808.566 1336.4C812.433 1339.74 820.033 1344.8 825.5 1347.6C847.5 1359.07 888.833 1373.34 908.833 1376.27C924.033 1378.67 951.766 1380.14 950.033 1378.54C949.366 1377.87 942.566 1376 934.833 1374.4C875.766 1362 830.3 1344.8 811.9 1327.87L805.1 1321.6L805.366 1301.74C805.5 1289.07 804.833 1277.6 803.5 1270.4C791.1 1199.6 790.966 1181.6 802.433 1147.34L807.5 1132.4L808.3 1151.74C809.633 1181.2 814.166 1202.27 823.1 1220.27C829.9 1234.14 834.566 1239.74 842.566 1244.14C855.366 1251.07 867.5 1251.34 880.166 1244.94C886.033 1242.14 895.1 1232.54 898.7 1225.34C905.5 1211.87 909.5 1188 909.5 1158.8V1142.54L917.233 1139.74C944.966 1129.2 966.433 1124.27 990.433 1122.67C1011.37 1121.34 1055.1 1122 1070.83 1123.87Z" fill="#231F27"/>
<path d="M1148.97 979.204C1167.9 985.471 1184.43 993.337 1189.63 998.804C1197.1 1006.4 1210.97 1033.34 1217.37 1052.54C1228.17 1085.07 1232.3 1110.54 1232.43 1145.07C1232.43 1176.54 1228.7 1195.6 1218.03 1217.6C1212.43 1229.07 1206.97 1235.07 1198.17 1239.2C1186.57 1244.67 1175.77 1242.8 1165.63 1233.2C1150.57 1219.2 1145.63 1196.4 1145.63 1140.4C1145.63 1108.27 1143.23 1049.07 1141.37 1035.07C1140.17 1025.2 1137.37 1008.14 1132.97 984.004C1131.63 976.671 1131.63 974.404 1132.83 974.404C1133.77 974.404 1140.97 976.537 1148.97 979.204Z" fill="#52E29D"/>
<path d="M915.366 984.004C910.966 1008.14 908.166 1025.2 906.966 1035.07C905.1 1049.07 902.7 1108.27 902.7 1140.4C902.7 1196.4 897.766 1219.2 882.7 1233.2C872.566 1242.8 861.766 1244.67 850.166 1239.2C841.366 1235.07 835.9 1229.07 830.3 1217.6C819.633 1195.6 815.9 1176.54 815.9 1145.07C816.033 1110.54 820.166 1085.07 830.966 1052.54C837.366 1033.47 851.233 1006.4 858.566 998.804C863.9 993.337 878.166 986.404 897.5 979.737C918.566 972.671 917.5 972.404 915.366 984.004Z" fill="#52E29D"/>
<path d="M837.366 1018.67C827.1 1038.94 817.1 1070.54 812.833 1095.74C811.366 1104.4 808.966 1111.87 805.5 1119.34C784.433 1163.74 782.033 1196 794.833 1263.47C798.033 1280.14 798.033 1278.67 794.7 1280.8C792.166 1282.4 790.833 1281.6 779.1 1272.14C754.7 1252.67 728.7 1224.4 713.5 1201.07C702.7 1184.4 686.433 1151.47 677.9 1129.07L676.395 1125.09C673.276 1116.85 670.627 1109.84 670.166 1108.8C669.5 1107.07 674.3 1103.2 693.1 1090.67C706.166 1082 725.5 1069.6 736.166 1063.07C746.833 1056.54 760.966 1048 767.5 1044C792.966 1028.4 834.7 1008 841.233 1007.74C842.166 1007.74 840.7 1012 837.366 1018.67Z" fill="#231F27"/>
<path d="M670.3 1130.4C680.566 1157.87 695.9 1188.54 710.033 1209.74C723.9 1230.67 747.9 1256.54 770.566 1275.07C782.966 1285.2 784.966 1287.34 783.633 1289.2C781.633 1292 765.366 1306.4 764.166 1306.4C762.033 1306.4 745.233 1294.67 732.166 1283.87C681.233 1242.14 642.566 1192 628.833 1150C626.3 1142 624.166 1135.34 624.166 1135.07C624.166 1134.54 632.433 1129.74 643.5 1123.6C647.9 1121.2 653.9 1117.6 656.833 1115.6C659.766 1113.6 662.566 1112.4 663.1 1112.8C663.633 1113.34 666.833 1121.2 670.3 1130.4Z" fill="#52E29D"/>
<path d="M1404.83 1123.6C1416.03 1129.74 1424.17 1134.54 1424.17 1135.07C1424.17 1135.34 1422.03 1142 1419.5 1150C1405.77 1192 1367.1 1242.14 1316.17 1283.87C1303.1 1294.67 1286.3 1306.4 1284.17 1306.4C1282.97 1306.4 1266.7 1292 1264.7 1289.2C1263.37 1287.34 1265.37 1285.2 1277.77 1275.07C1300.43 1256.54 1324.43 1230.67 1338.3 1209.74C1351.77 1189.6 1367.9 1157.74 1376.83 1133.74C1379.5 1126.4 1382.57 1118.4 1383.63 1116L1385.5 1111.6L1391.1 1115.47C1394.3 1117.6 1400.43 1121.2 1404.83 1123.6Z" fill="#52E29D"/>
<path d="M1222.57 1013.6C1237.9 1019.87 1261.63 1032.27 1280.83 1044C1287.5 1048 1301.5 1056.54 1312.17 1063.07C1322.83 1069.6 1342.17 1082 1355.23 1090.67C1374.03 1103.2 1378.83 1107.07 1378.17 1108.8C1377.71 1109.84 1375.06 1116.85 1371.94 1125.1L1370.43 1129.07C1361.9 1151.47 1345.63 1184.4 1334.83 1201.07C1319.63 1224.4 1293.63 1252.67 1269.23 1272.14C1257.5 1281.6 1256.17 1282.4 1253.63 1280.8C1250.3 1278.67 1250.3 1280.14 1253.5 1263.47C1266.3 1196 1263.9 1163.74 1242.83 1119.34C1239.37 1111.87 1236.97 1104.4 1235.5 1095.74C1231.23 1070.54 1221.23 1038.94 1210.97 1018.67C1207.9 1012.67 1206.17 1007.74 1206.83 1007.74C1207.63 1007.74 1214.7 1010.4 1222.57 1013.6Z" fill="#231F27"/>
<path d="M925.766 1034.4C930.7 1040.67 943.5 1054.94 949.5 1060.8C958.566 1069.74 968.7 1077.07 984.566 1086.27C1004.97 1098.27 1010.57 1100.14 1024.17 1100.14C1037.77 1100.14 1043.37 1098.27 1063.77 1086.27C1079.63 1077.07 1089.77 1069.74 1098.83 1060.8C1111.5 1048.4 1130.7 1025.07 1130.97 1021.87C1131.1 1018.4 1133.37 1026.8 1133.63 1032.14C1133.9 1036.27 1133.1 1039.47 1130.83 1043.2C1115.23 1068.94 1087.77 1094.27 1062.3 1106.4C1050.03 1112.14 1039.5 1114.4 1024.17 1114.4C1008.83 1114.4 998.3 1112.14 986.033 1106.4C960.566 1094.27 933.1 1068.94 917.5 1043.2C914.433 1038 913.9 1033.2 915.633 1024.67L916.433 1021.07L919.766 1026C921.633 1028.8 924.3 1032.54 925.766 1034.4Z" fill="#52E29D"/>
<path d="M920.833 1057.74C928.566 1068.67 946.966 1087.47 958.033 1095.6C967.366 1102.54 979.9 1109.74 988.033 1113.07L994.033 1115.34L982.7 1116.27C962.166 1118.14 926.7 1127.07 912.966 1134L909.119 1135.99C909.205 1133.45 909.44 1125.96 910.033 1106.27C911.233 1066.4 912.433 1046 913.5 1047.34C913.9 1047.87 917.233 1052.54 920.833 1057.74Z" fill="#231F27"/>
<path d="M1138.17 1102.8L1139.23 1136L1135.37 1134C1121.63 1127.07 1086.17 1118.14 1065.63 1116.27L1054.3 1115.34L1060.3 1113.07C1068.3 1109.87 1080.97 1102.54 1090.3 1095.6C1101.63 1087.34 1121.1 1067.34 1128.83 1055.87L1135.5 1046.14L1136.3 1057.87C1136.83 1064.4 1137.63 1084.67 1138.17 1102.8Z" fill="#231F27"/>
<path d="M1080.83 2004C1083.77 2015.2 1085.63 2036.54 1086.03 2064C1086.3 2077.87 1087.1 2089.74 1087.63 2090.4C1088.3 2090.94 1096.03 2092.4 1104.83 2093.6C1129.5 2097.07 1165.9 2104.8 1182.17 2110C1199.37 2115.47 1236.17 2129.74 1239.37 2132.14C1241.37 2133.6 1241.1 2135.47 1236.3 2155.07C1233.37 2166.8 1229.1 2186.27 1226.83 2198.4C1221.9 2224.54 1194.03 2364.14 1191.9 2373.87C1190.57 2380 1190.7 2381.07 1192.97 2384.14C1194.3 2386 1202.7 2391.2 1211.5 2395.6C1229.23 2404.54 1248.17 2416.27 1248.17 2418.4C1248.17 2419.07 1247.23 2419.74 1246.03 2419.74C1241.63 2419.74 1219.77 2432.54 1208.43 2441.74C1194.17 2453.34 1181.63 2468.67 1171.77 2486.8L1164.17 2500.67L1153.1 2503.2C1136.83 2506.94 1103.77 2506.67 1087.63 2502.67C1071.9 2498.67 1051.77 2490.14 1040.97 2482.54L1032.17 2476.4L1031.5 2309.74C1031.23 2218 1030.97 2135.87 1030.83 2127.07C1030.43 2097.87 1030.43 2097.74 1034.03 2096C1037.63 2094.4 1049.1 2092.27 1060.7 2090.94C1066.57 2090.4 1068.03 2089.74 1066.97 2088.67C1065.9 2087.6 1060.3 2087.07 1051.1 2087.2H1036.83L1036.7 2044.4L1036.43 2001.47L1057.37 1998.8C1068.83 1997.47 1078.3 1996.4 1078.57 1996.54C1078.83 1996.67 1079.9 2000 1080.83 2004Z" fill="white"/>
<path d="M1011.63 2044.4L1011.5 2087.2H997.233C988.033 2087.07 982.433 2087.6 981.366 2088.67C980.3 2089.74 981.766 2090.4 987.633 2090.94C999.233 2092.27 1010.7 2094.4 1014.3 2096C1017.9 2097.74 1017.9 2097.87 1017.5 2127.07C1017.37 2135.87 1017.1 2218 1016.83 2309.74L1016.17 2476.4L1007.37 2482.54C996.566 2490.14 976.433 2498.67 960.7 2502.67C944.566 2506.67 911.5 2506.94 895.233 2503.2L884.166 2500.67L876.566 2486.8C866.7 2468.67 854.166 2453.34 839.9 2441.74C828.566 2432.54 806.7 2419.74 802.3 2419.74C801.1 2419.74 800.166 2419.07 800.166 2418.4C800.166 2416.27 819.1 2404.54 836.833 2395.6C845.633 2391.2 854.033 2386 855.366 2384.14C857.633 2381.07 857.766 2380 856.433 2373.87C854.3 2364.14 826.433 2224.54 821.5 2198.4C819.233 2186.27 814.966 2166.8 812.033 2155.07C807.233 2135.47 806.966 2133.6 808.966 2132.14C812.166 2129.74 848.966 2115.47 866.166 2110C882.433 2104.8 918.966 2097.07 943.5 2093.6C962.566 2091.07 963.366 2090.54 962.166 2079.07C960.566 2064 964.3 2015.6 968.033 2001.47L969.5 1996.27L990.7 1998.8L1011.9 2001.47L1011.63 2044.4Z" fill="white"/>
<path d="M959.1 1996.8C956.966 2007.34 954.566 2040.54 954.433 2062.67L954.166 2090.4H942.833C936.566 2090.4 927.5 2090.8 922.7 2091.2L914.033 2092.14L911.1 2076.94C909.5 2068.54 907.5 2053.87 906.7 2044.4C905.233 2027.74 905.766 1998.54 907.5 1995.74C908.833 1993.47 959.633 1994.54 959.1 1996.8Z" fill="white"/>
<path d="M897.9 2024.67C898.833 2058.27 900.7 2072.67 906.3 2091.87C906.833 2093.6 905.633 2094.27 900.966 2094.94C897.633 2095.47 888.833 2097.34 881.233 2099.2C873.766 2100.94 867.233 2102 866.7 2101.47C860.7 2095.47 846.833 2034.54 846.833 2014.14C846.833 2006.8 846.966 2006.54 851.233 2005.34C858.566 2003.07 873.9 1999.6 884.966 1997.74C890.7 1996.8 895.9 1996 896.3 1995.87C896.7 1995.74 897.5 2008.8 897.9 2024.67Z" fill="white"/>
<path d="M838.566 2021.34C842.166 2049.6 851.5 2089.47 856.966 2100.14C858.166 2102.27 858.833 2104.14 858.566 2104.4C858.3 2104.67 851.9 2106.94 844.3 2109.47L830.7 2113.87L828.566 2109.87C820.966 2095.07 808.966 2050.4 807.366 2031.07L806.566 2020.27L816.3 2016.54C821.766 2014.54 827.366 2012.4 828.833 2011.74C830.3 2011.07 832.7 2010.54 834.3 2010.54C836.833 2010.4 837.233 2011.47 838.566 2021.34Z" fill="white"/>
<path d="M797.9 2031.07C800.166 2048.67 812.566 2093.07 820.3 2111.47L822.833 2117.2L819.766 2118.27C818.166 2118.94 813.366 2121.07 809.233 2122.94C802.3 2126 801.633 2126.14 800.966 2124C797.9 2112.67 784.966 2049.87 783.633 2039.47L782.833 2033.07L789.766 2029.2C793.633 2026.94 796.833 2025.34 796.966 2025.47C797.1 2025.6 797.5 2028.14 797.9 2031.07Z" fill="white"/>
<path d="M1140.83 1995.74C1142.57 1998.54 1143.1 2027.74 1141.63 2044.4C1140.83 2053.87 1138.83 2068.54 1137.23 2076.94L1134.3 2092.14L1125.63 2091.2C1120.83 2090.8 1111.77 2090.4 1105.5 2090.4H1094.17L1093.9 2062.67C1093.77 2041.2 1091.63 2010.8 1089.37 1997.47C1089.23 1996.94 1089.23 1996 1089.37 1995.34C1089.63 1993.87 1139.9 1994.14 1140.83 1995.74Z" fill="white"/>
<path d="M1162.17 1997.74C1169.1 1998.67 1195.63 2004.4 1199.37 2005.87C1202.17 2006.94 1202.17 2015.47 1199.37 2034.27C1196.57 2053.47 1192.97 2069.87 1188.03 2085.34C1182.17 2104 1183.37 2103.2 1167.1 2099.2C1159.63 2097.34 1150.7 2095.47 1147.37 2094.94C1142.7 2094.27 1141.5 2093.6 1142.03 2091.87C1147.63 2072.67 1149.5 2058.27 1150.43 2024.67C1151.1 1998.94 1151.5 1995.74 1153.37 1996.27C1154.57 1996.54 1158.57 1997.2 1162.17 1997.74Z" fill="white"/>
<path d="M1224.83 2013.87C1230.03 2015.74 1235.9 2018 1238.03 2018.67L1241.77 2020.14L1240.97 2030.94C1239.37 2050.4 1227.37 2095.07 1219.77 2109.87L1217.63 2113.87L1204.03 2109.47C1196.43 2106.94 1190.17 2104.8 1189.9 2104.67C1189.77 2104.4 1191.1 2100.67 1192.83 2096.14C1198.57 2081.87 1207.77 2040.94 1210.17 2018C1211.23 2008.94 1211.5 2008.94 1224.83 2013.87Z" fill="white"/>
<path d="M1264.43 2039.2C1263.9 2047.47 1251.23 2109.87 1247.37 2124C1246.7 2126.14 1246.03 2126 1239.1 2122.94C1234.97 2121.07 1230.17 2118.94 1228.57 2118.27L1225.5 2117.2L1228.03 2111.47C1235.37 2094.14 1241.63 2072.54 1250.17 2034.4C1250.43 2033.34 1250.7 2030.67 1250.7 2028.67L1250.83 2024.8L1257.9 2028.8L1264.83 2032.8L1264.43 2039.2Z" fill="white"/>
<path d="M1304.83 2457.34C1311.23 2461.87 1320.17 2469.2 1324.57 2473.47L1332.83 2481.34L1322.83 2485.07C1303.63 2492 1282.57 2504.4 1266.83 2518C1260.03 2523.87 1245.37 2539.47 1242.97 2543.47C1242.03 2544.94 1240.7 2544.8 1236.03 2542.4C1226.7 2537.74 1225.5 2536.14 1225.5 2528.8C1225.5 2515.74 1234.03 2496.8 1246.7 2481.2C1254.43 2471.74 1270.7 2458.54 1280.83 2453.6C1285.9 2451.2 1290.83 2449.07 1291.63 2449.07C1292.43 2449.07 1298.43 2452.8 1304.83 2457.34Z" fill="white"/>
<path d="M767.366 2453.6C777.5 2458.54 793.9 2471.6 801.633 2481.2C814.3 2496.8 822.833 2515.74 822.833 2528.8C822.833 2536.14 821.633 2537.74 812.3 2542.4C807.633 2544.8 806.3 2544.94 805.366 2543.47C802.966 2539.47 788.3 2523.87 781.5 2518C765.766 2504.4 744.7 2492 725.5 2485.07L715.5 2481.34L723.766 2473.47C732.033 2465.47 754.033 2449.07 756.566 2449.07C757.233 2449.07 762.166 2451.07 767.366 2453.6Z" fill="white"/>
<path d="M1180.58 1177.33C1182.18 1178 1183.92 1179.07 1184.45 1179.87C1184.98 1180.93 1186.05 1180.93 1187.78 1180C1192.58 1177.47 1199.65 1178.4 1203.38 1182.13C1206.32 1185.07 1206.72 1186.4 1206.18 1192C1205.65 1197.6 1205.92 1199.07 1208.45 1201.33C1212.18 1204.93 1213.52 1210.67 1211.65 1216C1209.92 1220.67 1206.98 1222.67 1201.25 1222.67C1197.92 1222.67 1196.85 1223.47 1195.25 1227.2C1192.58 1233.6 1185.78 1235.87 1178.72 1232.4C1174.85 1230.53 1173.52 1228.93 1172.45 1224.67C1171.25 1219.87 1170.72 1219.33 1166.45 1218.93C1159.38 1218.27 1155.52 1213.33 1156.05 1205.47C1156.45 1200.13 1156.98 1199.07 1160.45 1197.33C1164.18 1195.47 1164.45 1194.93 1164.05 1188.8C1163.65 1183.6 1164.18 1181.73 1166.58 1179.2C1169.65 1175.87 1175.25 1175.2 1180.58 1177.33ZM1169.92 1183.47C1166.98 1186.27 1167.25 1189.6 1170.45 1193.73L1173.12 1197.2L1176.72 1193.87C1178.58 1192.13 1180.98 1190.67 1181.92 1190.67C1184.45 1190.67 1184.18 1188.93 1180.98 1184.8C1177.92 1180.93 1172.98 1180.27 1169.92 1183.47ZM1189.12 1186C1187.12 1188.4 1186.98 1188.13 1193.52 1192.67C1198.98 1196.27 1200.45 1196.13 1201.52 1192.13C1203.12 1185.87 1193.25 1180.93 1189.12 1186ZM1180.05 1197.33C1173.65 1203.33 1178.58 1213.33 1187.92 1213.33C1193.65 1213.33 1195.78 1210.8 1195.78 1204.13C1195.78 1201.47 1194.72 1199.33 1192.32 1197.47C1187.78 1193.87 1183.78 1193.87 1180.05 1197.33ZM1161.12 1204C1158.32 1209.2 1164.85 1215.73 1171.38 1214C1173.78 1213.47 1174.45 1212.67 1173.78 1210.93C1173.38 1209.73 1172.58 1207.07 1172.18 1204.93C1171.52 1201.87 1170.85 1201.33 1166.98 1201.33C1163.92 1201.33 1162.05 1202.13 1161.12 1204ZM1198.72 1212.93C1196.45 1217.07 1196.58 1217.33 1200.85 1217.33C1208.05 1217.33 1209.78 1212.27 1204.85 1205.87L1201.92 1202.13L1201.12 1206.13C1200.58 1208.27 1199.52 1211.33 1198.72 1212.93ZM1177.12 1222.27C1177.12 1225.47 1181.65 1229.33 1185.38 1229.33C1188.05 1229.33 1191.78 1224.53 1191.78 1221.07C1191.78 1219.33 1190.72 1218.67 1188.05 1218.53C1186.05 1218.53 1183.25 1218 1181.78 1217.47C1178.72 1216.27 1177.12 1217.87 1177.12 1222.27Z" fill="black"/>
<path d="M1177.12 1222.27C1177.12 1225.47 1181.65 1229.33 1185.38 1229.33C1188.05 1229.33 1191.78 1224.53 1191.78 1221.07C1191.78 1219.33 1190.72 1218.67 1188.05 1218.53C1186.05 1218.53 1183.25 1218 1181.78 1217.47C1178.72 1216.27 1177.12 1217.87 1177.12 1222.27Z" fill="#9252E2"/>
<path d="M1161.12 1204C1158.32 1209.2 1164.85 1215.73 1171.38 1214C1173.78 1213.47 1174.45 1212.67 1173.78 1210.93C1173.38 1209.73 1172.58 1207.07 1172.18 1204.93C1171.52 1201.87 1170.85 1201.33 1166.98 1201.33C1163.92 1201.33 1162.05 1202.13 1161.12 1204Z" fill="#9252E2"/>
<path d="M1169.92 1183.47C1166.98 1186.27 1167.25 1189.6 1170.45 1193.73L1173.12 1197.2L1176.72 1193.87C1178.58 1192.13 1180.98 1190.67 1181.92 1190.67C1184.45 1190.67 1184.18 1188.93 1180.98 1184.8C1177.92 1180.93 1172.98 1180.27 1169.92 1183.47Z" fill="#9252E2"/>
<path d="M1189.12 1186C1187.12 1188.4 1186.98 1188.13 1193.52 1192.67C1198.98 1196.27 1200.45 1196.13 1201.52 1192.13C1203.12 1185.87 1193.25 1180.93 1189.12 1186Z" fill="#9252E2"/>
<path d="M1198.72 1212.93C1196.45 1217.07 1196.58 1217.33 1200.85 1217.33C1208.05 1217.33 1209.78 1212.27 1204.85 1205.87L1201.92 1202.13L1201.12 1206.13C1200.58 1208.27 1199.52 1211.33 1198.72 1212.93Z" fill="#9252E2"/>
<path d="M1180.05 1197.33C1173.65 1203.33 1178.58 1213.33 1187.92 1213.33C1193.65 1213.33 1195.78 1210.8 1195.78 1204.13C1195.78 1201.47 1194.72 1199.33 1192.32 1197.47C1187.78 1193.87 1183.78 1193.87 1180.05 1197.33Z" fill="#FFFFA4"/>
<path d="M867.904 1177.33C866.304 1178 864.571 1179.07 864.038 1179.87C863.504 1180.93 862.438 1180.93 860.704 1180C855.904 1177.47 848.838 1178.4 845.104 1182.13C842.171 1185.07 841.771 1186.4 842.304 1192C842.838 1197.6 842.571 1199.07 840.038 1201.33C836.304 1204.93 834.971 1210.67 836.838 1216C838.571 1220.67 841.504 1222.67 847.238 1222.67C850.571 1222.67 851.638 1223.47 853.238 1227.2C855.904 1233.6 862.704 1235.87 869.771 1232.4C873.638 1230.53 874.971 1228.93 876.038 1224.67C877.238 1219.87 877.771 1219.33 882.038 1218.93C889.104 1218.27 892.971 1213.33 892.438 1205.47C892.038 1200.13 891.504 1199.07 888.038 1197.33C884.304 1195.47 884.038 1194.93 884.438 1188.8C884.838 1183.6 884.304 1181.73 881.904 1179.2C878.838 1175.87 873.238 1175.2 867.904 1177.33ZM878.571 1183.47C881.504 1186.27 881.238 1189.6 878.038 1193.73L875.371 1197.2L871.771 1193.87C869.904 1192.13 867.504 1190.67 866.571 1190.67C864.038 1190.67 864.304 1188.93 867.504 1184.8C870.571 1180.93 875.504 1180.27 878.571 1183.47ZM859.371 1186C861.371 1188.4 861.504 1188.13 854.971 1192.67C849.504 1196.27 848.038 1196.13 846.971 1192.13C845.371 1185.87 855.238 1180.93 859.371 1186ZM868.438 1197.33C874.838 1203.33 869.904 1213.33 860.571 1213.33C854.838 1213.33 852.704 1210.8 852.704 1204.13C852.704 1201.47 853.771 1199.33 856.171 1197.47C860.704 1193.87 864.704 1193.87 868.438 1197.33ZM887.371 1204C890.171 1209.2 883.638 1215.73 877.104 1214C874.704 1213.47 874.038 1212.67 874.704 1210.93C875.104 1209.73 875.904 1207.07 876.304 1204.93C876.971 1201.87 877.638 1201.33 881.504 1201.33C884.571 1201.33 886.438 1202.13 887.371 1204ZM849.771 1212.93C852.038 1217.07 851.904 1217.33 847.638 1217.33C840.438 1217.33 838.704 1212.27 843.638 1205.87L846.571 1202.13L847.371 1206.13C847.904 1208.27 848.971 1211.33 849.771 1212.93ZM871.371 1222.27C871.371 1225.47 866.838 1229.33 863.104 1229.33C860.438 1229.33 856.704 1224.53 856.704 1221.07C856.704 1219.33 857.771 1218.67 860.438 1218.53C862.438 1218.53 865.238 1218 866.704 1217.47C869.771 1216.27 871.371 1217.87 871.371 1222.27Z" fill="black"/>
<path d="M871.371 1222.27C871.371 1225.47 866.838 1229.33 863.104 1229.33C860.438 1229.33 856.704 1224.53 856.704 1221.07C856.704 1219.33 857.771 1218.67 860.438 1218.53C862.438 1218.53 865.238 1218 866.704 1217.47C869.771 1216.27 871.371 1217.87 871.371 1222.27Z" fill="#9252E2"/>
<path d="M887.371 1204C890.171 1209.2 883.638 1215.73 877.104 1214C874.704 1213.47 874.038 1212.67 874.704 1210.93C875.104 1209.73 875.904 1207.07 876.304 1204.93C876.971 1201.87 877.638 1201.33 881.504 1201.33C884.571 1201.33 886.438 1202.13 887.371 1204Z" fill="#9252E2"/>
<path d="M878.571 1183.47C881.504 1186.27 881.238 1189.6 878.038 1193.73L875.371 1197.2L871.771 1193.87C869.904 1192.13 867.504 1190.67 866.571 1190.67C864.038 1190.67 864.304 1188.93 867.504 1184.8C870.571 1180.93 875.504 1180.27 878.571 1183.47Z" fill="#9252E2"/>
<path d="M859.371 1186C861.371 1188.4 861.504 1188.13 854.971 1192.67C849.504 1196.27 848.038 1196.13 846.971 1192.13C845.371 1185.87 855.238 1180.93 859.371 1186Z" fill="#9252E2"/>
<path d="M849.771 1212.93C852.038 1217.07 851.904 1217.33 847.638 1217.33C840.438 1217.33 838.704 1212.27 843.638 1205.87L846.571 1202.13L847.371 1206.13C847.904 1208.27 848.971 1211.33 849.771 1212.93Z" fill="#9252E2"/>
<path d="M868.438 1197.33C874.838 1203.33 869.904 1213.33 860.571 1213.33C854.838 1213.33 852.704 1210.8 852.704 1204.13C852.704 1201.47 853.771 1199.33 856.171 1197.47C860.704 1193.87 864.704 1193.87 868.438 1197.33Z" fill="#FFFFA4"/>
<path d="M987.095 1166.81L987.086 1166.81L987.077 1166.81C968.071 1169.05 959.762 1170.88 945.071 1175.6L945.068 1175.6C940.755 1176.98 937.692 1177.98 935.429 1178.91C933.15 1179.85 932.102 1180.57 931.539 1181.19C931.073 1181.7 930.71 1182.39 930.498 1183.92C930.269 1185.58 930.266 1187.78 930.3 1191.14C930.366 1194.09 930.497 1197.16 930.675 1199.76C930.861 1202.46 931.082 1204.38 931.274 1205.2L931.279 1205.22L931.284 1205.24C931.398 1205.76 931.487 1206.11 931.559 1206.35C932.05 1206.39 932.769 1206.4 933.903 1206.37L933.952 1206.37H934C935.066 1206.37 937.534 1206.01 940.894 1205.34C944.133 1204.68 947.897 1203.8 951.37 1202.88C972.818 1197.18 991.94 1195.03 1024 1195.03C1056.06 1195.03 1075.18 1197.18 1096.63 1202.88C1100.1 1203.8 1103.87 1204.68 1107.11 1205.34C1110.47 1206.01 1112.93 1206.37 1114 1206.37H1114.05L1114.1 1206.37C1115.23 1206.4 1115.95 1206.39 1116.44 1206.35C1116.51 1206.11 1116.6 1205.76 1116.72 1205.24L1116.72 1205.22L1116.73 1205.2C1116.92 1204.38 1117.14 1202.46 1117.33 1199.76C1117.5 1197.16 1117.63 1194.09 1117.7 1191.14C1117.73 1187.82 1117.73 1185.61 1117.53 1183.94C1117.33 1182.35 1116.99 1181.65 1116.6 1181.17C1116.15 1180.63 1115.3 1179.98 1113.35 1179.13C1111.39 1178.27 1108.72 1177.37 1104.91 1176.13L1104.9 1176.12L1104.89 1176.12C1074.81 1166.05 1025.61 1162.06 987.095 1166.81Z" fill="#9252E2" stroke="black" stroke-width="7"/>
<path d="M932 1218.53C930.4 1221.6 932.267 1242.8 935.467 1258C938.8 1274.27 950.8 1296.27 954.4 1292.8C954.8 1292.4 952.667 1287.07 949.733 1281.07C941.2 1263.73 937.467 1248.67 937.333 1231.2C937.333 1222.8 936 1216 934.533 1216C933.867 1216 932.8 1217.2 932 1218.53Z" fill="black"/>
<path d="M1111.47 1220.13C1111.07 1222.4 1110.67 1227.47 1110.67 1231.2C1110.53 1248.67 1106.8 1263.73 1098.27 1281.07C1095.33 1287.07 1093.2 1292.4 1093.6 1292.8C1097.2 1296.27 1109.2 1274.27 1112.53 1258C1115.73 1242.8 1117.6 1221.6 1116 1218.53C1114 1214.8 1112.4 1215.47 1111.47 1220.13Z" fill="black"/>
<path d="M985.364 1230.9L985.361 1230.91L985.359 1230.92C982.233 1240.04 982.474 1247.72 986.324 1255.13C990.24 1262.66 998 1270.13 1010.44 1278.47C1013.4 1280.42 1016.11 1282.35 1018.08 1283.86C1019.07 1284.62 1019.9 1285.29 1020.49 1285.83C1020.79 1286.09 1021.06 1286.35 1021.28 1286.59C1021.38 1286.71 1021.51 1286.86 1021.62 1287.04C1021.65 1287.05 1021.69 1287.06 1021.73 1287.07C1022.26 1287.22 1023.08 1287.33 1024 1287.33C1025 1287.33 1025.81 1287.21 1026.31 1287.07C1026.33 1287.07 1026.35 1287.06 1026.37 1287.06L1026.37 1287.06C1026.48 1286.87 1026.62 1286.71 1026.72 1286.59C1026.94 1286.35 1027.21 1286.09 1027.51 1285.83C1028.1 1285.29 1028.93 1284.62 1029.92 1283.86C1031.89 1282.35 1034.6 1280.42 1037.56 1278.47C1050 1270.13 1057.76 1262.66 1061.68 1255.13C1065.53 1247.72 1065.77 1240.04 1062.64 1230.92L1062.64 1230.91L1062.64 1230.9C1061.24 1226.71 1059.61 1224.31 1057.26 1222.82C1054.84 1221.29 1051.33 1220.53 1045.69 1220.4L1045.68 1220.4C1035.94 1220.14 1030.82 1222.49 1028.3 1227.21L1028.29 1227.22C1027.79 1228.16 1027.22 1229.04 1026.66 1229.72C1026.39 1230.05 1026.08 1230.39 1025.74 1230.66C1025.49 1230.86 1024.86 1231.33 1024 1231.33C1023.14 1231.33 1022.51 1230.86 1022.26 1230.66C1021.92 1230.39 1021.61 1230.05 1021.34 1229.72C1020.78 1229.04 1020.22 1228.16 1019.71 1227.22C1016.96 1222.17 1009.94 1219.35 998.981 1220.26C995.172 1220.64 992.375 1221.65 990.263 1223.29C988.155 1224.94 986.543 1227.36 985.364 1230.9Z" fill="#9252E2" stroke="black" stroke-width="4"/>
<path d="M963.333 1302.67C962 1304.8 963.333 1306 974.133 1313.2C980.533 1317.47 988.667 1321.47 997.067 1324.13C1008.27 1327.87 1011.87 1328.4 1024 1328.4C1036.13 1328.4 1039.73 1327.87 1050.93 1324.13C1059.33 1321.47 1067.47 1317.47 1073.87 1313.2C1084.67 1306 1086.27 1304.4 1084.4 1302.53C1083.73 1301.87 1078.8 1304.13 1072.4 1308.13C1066.4 1311.73 1056.53 1316.67 1050.4 1318.93C1040.27 1322.8 1038 1323.2 1024 1323.2C1010 1323.2 1007.73 1322.8 997.467 1318.93C991.333 1316.67 982 1312.13 976.8 1308.93C963.867 1300.93 964.267 1301.07 963.333 1302.67Z" fill="black"/>
<path d="M420.4 1241.2C414.8 1244.67 412 1250.4 412 1258C412 1263.07 412.667 1264.93 415.733 1268C419.2 1271.33 419.333 1272.13 417.867 1274.93C416.933 1276.53 416.133 1280.27 416 1283.07C416 1287.2 416.933 1289.2 420.533 1292.8C424.933 1297.2 425.067 1297.6 423.2 1301.07C422.267 1303.07 421.333 1306.93 421.333 1309.73C421.333 1313.87 422.267 1315.87 425.867 1319.47C428.4 1322 432.133 1324.4 434.267 1324.8C438 1325.47 438.133 1326 438.133 1332C438 1340 441.2 1344.93 449.067 1348.67L454.533 1351.2V1369.33L454.4 1387.33L448.533 1396.8L442.667 1406.27L433.733 1407.07C424.4 1408 420 1410.53 420 1415.07C420 1417.73 431.067 1429.73 434.533 1430.93C436.133 1431.33 435.733 1432.93 432.933 1438.67C428.667 1447.2 428.4 1452 431.867 1455.2C435.333 1458.4 441.2 1456.53 449.867 1449.33C453.333 1446.4 456.667 1444 457.067 1444C457.467 1444 459.733 1445.47 462.267 1447.47C468.533 1452.27 473.867 1453.87 477.2 1452.13C482 1449.6 482.933 1446.13 480.667 1439.73C478.133 1432.27 478 1432.4 482.667 1431.33C488.133 1430.13 493.333 1425.73 493.333 1422.13C493.333 1417.2 484.667 1410.8 475.2 1408.8C471.467 1408 470.933 1407.07 469.333 1400.53C468.267 1396.4 466.4 1391.73 465.067 1390C463.2 1387.6 462.667 1384.53 462.667 1375.33V1363.87L466 1366.4C467.867 1367.87 471.467 1369.47 474 1369.87C477.867 1370.67 478.667 1371.33 478.667 1374.13C478.667 1378.93 483.467 1387.6 487.6 1390.27C489.733 1391.73 493.333 1392.53 496.667 1392.4C501.333 1392.27 502.4 1392.8 504.267 1396C508.133 1402.8 517.333 1405.6 525.333 1402.27C526.667 1401.73 528.267 1402.93 530 1405.73C532.133 1409.2 533.733 1410.13 537.867 1410.4C545.2 1411.07 548.4 1410 553.067 1405.2C564.933 1393.07 554.133 1374.4 537.867 1378.93C533.467 1380.13 532.667 1379.87 529.333 1376.67C526.4 1373.87 524.133 1372.93 519.467 1372.8C513.867 1372.67 513.467 1372.4 512.667 1368.53C511.6 1362.8 507.467 1357.87 502.133 1355.87C498.533 1354.53 497.467 1353.2 496.267 1348.53C494.533 1342.13 488.667 1336.93 481.733 1335.33C478.133 1334.67 477.333 1333.87 477.333 1331.07C477.333 1327.2 473.867 1319.47 471.2 1317.2C470.133 1316.4 467.067 1314.93 464.4 1314C459.467 1312.27 459.333 1312.13 459.333 1305.6C459.333 1300 458.667 1298.13 455.467 1294.8C453.333 1292.53 450.533 1290.4 449.2 1290C447.467 1289.33 447.2 1288.4 447.867 1284.93C449.067 1279.6 447.6 1273.87 444.133 1270.13C441.467 1267.33 441.467 1266.93 443.467 1261.73C444.933 1258.13 445.333 1254.53 444.8 1251.6C442.8 1241.2 429.467 1235.47 420.4 1241.2ZM437.467 1274.67C440.667 1276.4 440.933 1284.27 437.867 1287.2C433.467 1291.73 424 1288.27 424 1282.27C424 1278.67 429.067 1273.33 432.267 1273.33C433.733 1273.33 436 1274 437.467 1274.67ZM466.533 1324.8C470.267 1329.6 470 1332.4 465.333 1337.07C460.267 1342.13 455.733 1343.33 450.667 1340.67C446.8 1338.67 445.867 1336.4 446.533 1330C447.333 1321.47 461.067 1318 466.533 1324.8ZM502.533 1366.13C506.933 1371.73 503.333 1381.73 496.4 1383.47C488.4 1385.47 482.667 1369.73 489.733 1364.93C494.267 1361.6 499.467 1362.13 502.533 1366.13ZM548.133 1388.8C548.933 1389.87 549.733 1392.27 549.733 1394.27C549.733 1400.8 540 1405.47 536.133 1400.8C534.267 1398.53 533.733 1391.87 535.333 1389.47C537.733 1385.47 545.067 1385.2 548.133 1388.8ZM474.4 1416.8C479.867 1419.33 484 1421.73 483.6 1422.13C483.333 1422.53 480.133 1423.47 476.667 1424.4C467.867 1426.67 466.667 1428.93 470.667 1436.53C472.533 1439.87 473.467 1442.93 472.933 1443.47C472.533 1444 469.2 1442.27 465.867 1439.47C462.4 1436.8 458.533 1434.67 457.333 1434.67C456.133 1434.67 451.333 1437.6 446.8 1441.33C442.267 1444.93 438.133 1448 437.867 1448C437.467 1448 438.933 1444.53 441.2 1440.4C446.267 1431.07 446.4 1428.67 441.733 1425.73C427.6 1416.8 427.2 1414.67 439.733 1414.67H446.667L452.933 1404.93L459.2 1395.33L461.733 1403.87L464.267 1412.27L474.4 1416.8Z" fill="black"/>
<path d="M474.4 1416.8C479.867 1419.33 484 1421.73 483.6 1422.13C483.333 1422.53 480.133 1423.47 476.667 1424.4C467.867 1426.67 466.667 1428.93 470.667 1436.53C472.533 1439.87 473.467 1442.93 472.933 1443.47C472.533 1444 469.2 1442.27 465.867 1439.47C462.4 1436.8 458.533 1434.67 457.333 1434.67C456.133 1434.67 451.333 1437.6 446.8 1441.33C442.267 1444.93 438.133 1448 437.867 1448C437.467 1448 438.933 1444.53 441.2 1440.4C446.267 1431.07 446.4 1428.67 441.733 1425.73C427.6 1416.8 427.2 1414.67 439.733 1414.67H446.667L452.933 1404.93L459.2 1395.33L461.733 1403.87L464.267 1412.27L474.4 1416.8Z" fill="#FFFFA4"/>
<path d="M548.133 1388.8C548.933 1389.87 549.733 1392.27 549.733 1394.27C549.733 1400.8 540 1405.47 536.133 1400.8C534.267 1398.53 533.733 1391.87 535.333 1389.47C537.733 1385.47 545.067 1385.2 548.133 1388.8Z" fill="#9252E2"/>
<path d="M502.533 1366.13C506.933 1371.73 503.333 1381.73 496.4 1383.47C488.4 1385.47 482.667 1369.73 489.733 1364.93C494.267 1361.6 499.467 1362.13 502.533 1366.13Z" fill="#9252E2"/>
<path d="M466.533 1324.8C470.267 1329.6 470 1332.4 465.333 1337.07C460.267 1342.13 455.733 1343.33 450.667 1340.67C446.8 1338.67 445.867 1336.4 446.533 1330C447.333 1321.47 461.067 1318 466.533 1324.8Z" fill="#9252E2"/>
<path d="M437.467 1274.67C440.667 1276.4 440.933 1284.27 437.867 1287.2C433.467 1291.73 424 1288.27 424 1282.27C424 1278.67 429.067 1273.33 432.267 1273.33C433.733 1273.33 436 1274 437.467 1274.67Z" fill="#9252E2"/>
<path d="M1612.67 1240C1604.53 1243.33 1600.93 1253.2 1604.53 1262C1606.67 1266.93 1606.53 1267.2 1604 1270C1600.4 1273.87 1598.93 1279.6 1600.13 1284.93C1600.8 1288.4 1600.53 1289.33 1598.8 1290C1597.47 1290.4 1594.67 1292.53 1592.53 1294.8C1589.33 1298.13 1588.67 1300 1588.67 1305.6C1588.67 1312.13 1588.53 1312.27 1583.6 1314C1580.93 1314.93 1577.87 1316.4 1576.8 1317.2C1574.13 1319.47 1570.67 1327.2 1570.67 1331.07C1570.67 1333.87 1569.87 1334.67 1566.4 1335.33C1559.33 1336.93 1553.47 1342.13 1551.73 1348.53C1550.53 1353.2 1549.47 1354.53 1545.87 1355.87C1540.53 1357.87 1536.4 1362.8 1535.33 1368.53C1534.53 1372.4 1534.13 1372.67 1528.53 1372.8C1523.87 1372.93 1521.6 1373.87 1518.67 1376.67C1515.33 1379.87 1514.53 1380.13 1510.13 1378.93C1502 1376.67 1494.27 1380.13 1491.07 1387.73C1488.53 1393.73 1490 1400.13 1494.93 1405.2C1499.6 1410 1502.8 1411.07 1510.13 1410.4C1514.27 1410.13 1515.87 1409.2 1518 1405.73C1519.73 1402.93 1521.33 1401.73 1522.67 1402.27C1530.67 1405.6 1539.87 1402.8 1543.73 1396C1545.6 1392.8 1546.67 1392.27 1551.33 1392.4C1554.67 1392.53 1558.27 1391.73 1560.4 1390.27C1564.53 1387.6 1569.33 1378.93 1569.33 1374.13C1569.33 1371.33 1570.13 1370.67 1574 1369.87C1576.53 1369.47 1580.13 1367.87 1582 1366.4L1585.33 1363.87V1370.67V1377.47L1580.8 1376.67C1574.53 1375.47 1570.93 1376.8 1568.67 1381.33C1564.4 1389.6 1566.67 1395.87 1577.73 1406.4C1587.33 1415.47 1589.73 1415.33 1598.4 1406.13C1606.8 1397.2 1611.33 1388.4 1610.13 1383.47C1609.07 1379.2 1601.73 1375.47 1596.93 1376.67C1593.87 1377.47 1593.87 1377.33 1593.6 1364.4L1593.2 1351.33L1598.93 1348.67C1606.8 1344.93 1610 1340 1609.87 1332C1609.87 1326 1610 1325.47 1613.73 1324.8C1615.87 1324.4 1619.6 1322 1622.13 1319.47C1625.73 1315.87 1626.67 1313.87 1626.67 1309.73C1626.67 1306.93 1625.73 1303.07 1624.8 1301.07C1622.93 1297.6 1623.07 1297.2 1627.47 1292.8C1631.07 1289.2 1632 1287.2 1632 1283.07C1631.87 1280.27 1631.07 1276.53 1630.13 1274.93C1628.67 1272.13 1628.8 1271.33 1632.27 1268C1635.33 1264.93 1636 1263.07 1636 1257.73C1636 1244.13 1624.27 1235.2 1612.67 1240ZM1625.33 1249.6C1633.47 1258.4 1622.53 1270.4 1614 1261.87C1611.2 1258.93 1611.33 1249.87 1614.4 1248.13C1618.13 1245.87 1622.4 1246.53 1625.33 1249.6ZM1620.93 1276.27C1626.4 1281.47 1623.33 1289.33 1615.87 1289.33C1610.93 1289.33 1608 1286.13 1608 1280.67C1608 1273.33 1615.2 1270.93 1620.93 1276.27ZM1613.33 1299.87C1621.07 1305.33 1619.87 1315.2 1611.33 1316.8C1604.8 1318 1600.27 1315.73 1598 1310C1593.33 1299.07 1603.07 1292.67 1613.33 1299.87ZM1598.4 1324.4C1603.47 1329.73 1602.93 1337.73 1597.33 1340.67C1592.27 1343.33 1587.73 1342.13 1582.67 1337.07C1578 1332.4 1577.73 1329.6 1581.47 1324.8C1585.2 1320.13 1594.13 1319.87 1598.4 1324.4ZM1577.33 1345.33C1580.8 1348.8 1581.33 1356 1578.4 1359.6C1574.93 1363.73 1561.07 1358.93 1559.6 1353.07C1557.6 1345.6 1571.47 1339.47 1577.33 1345.33ZM1558 1364.8C1565.33 1369.6 1559.73 1385.6 1551.6 1383.47C1544.67 1381.73 1541.07 1371.73 1545.47 1366.13C1548.67 1362.13 1553.2 1361.6 1558 1364.8ZM1535.33 1383.2C1540.53 1388.4 1535.87 1397.2 1528.8 1395.47C1521.47 1393.6 1519.47 1383.87 1525.73 1381.33C1530.4 1379.47 1531.87 1379.73 1535.33 1383.2ZM1512.8 1390.53C1514.67 1394.13 1513.33 1399.87 1510.4 1401.87C1504.93 1405.2 1496.4 1397.6 1498.53 1391.47C1500.93 1385.07 1509.73 1384.53 1512.8 1390.53Z" fill="black"/>
<path d="M1512.8 1390.53C1514.67 1394.13 1513.33 1399.87 1510.4 1401.87C1504.93 1405.2 1496.4 1397.6 1498.53 1391.47C1500.93 1385.07 1509.73 1384.53 1512.8 1390.53Z" fill="#9252E2"/>
<path d="M1535.33 1383.2C1540.53 1388.4 1535.87 1397.2 1528.8 1395.47C1521.47 1393.6 1519.47 1383.87 1525.73 1381.33C1530.4 1379.47 1531.87 1379.73 1535.33 1383.2Z" fill="#52E29D"/>
<path d="M1558 1364.8C1565.33 1369.6 1559.73 1385.6 1551.6 1383.47C1544.67 1381.73 1541.07 1371.73 1545.47 1366.13C1548.67 1362.13 1553.2 1361.6 1558 1364.8Z" fill="#9252E2"/>
<path d="M1577.33 1345.33C1580.8 1348.8 1581.33 1356 1578.4 1359.6C1574.93 1363.73 1561.07 1358.93 1559.6 1353.07C1557.6 1345.6 1571.47 1339.47 1577.33 1345.33Z" fill="#52E29D"/>
<path d="M1598.4 1324.4C1603.47 1329.73 1602.93 1337.73 1597.33 1340.67C1592.27 1343.33 1587.73 1342.13 1582.67 1337.07C1578 1332.4 1577.73 1329.6 1581.47 1324.8C1585.2 1320.13 1594.13 1319.87 1598.4 1324.4Z" fill="#9252E2"/>
<path d="M1613.33 1299.87C1621.07 1305.33 1619.87 1315.2 1611.33 1316.8C1604.8 1318 1600.27 1315.73 1598 1310C1593.33 1299.07 1603.07 1292.67 1613.33 1299.87Z" fill="#52E29D"/>
<path d="M1620.93 1276.27C1626.4 1281.47 1623.33 1289.33 1615.87 1289.33C1610.93 1289.33 1608 1286.13 1608 1280.67C1608 1273.33 1615.2 1270.93 1620.93 1276.27Z" fill="#9252E2"/>
<path d="M1625.33 1249.6C1633.47 1258.4 1622.53 1270.4 1614 1261.87C1611.2 1258.93 1611.33 1249.87 1614.4 1248.13C1618.13 1245.87 1622.4 1246.53 1625.33 1249.6Z" fill="#52E29D"/>
</svg>
