
<svg version="1.0" xmlns="http://www.w3.org/2000/svg"
 width="1536.000000pt" height="2048.000000pt" viewBox="0 0 1536.000000 2048.000000"
 preserveAspectRatio="xMidYMid meet">

<g transform="translate(0.000000,2048.000000) scale(0.100000,-0.100000)"
fill="#000000" stroke="none">
<path d="M7049 13553 c-10 -11 -15 -53 -18 -135 l-3 -119 43 -41 c57 -52 260
-151 369 -180 47 -12 87 -23 89 -24 2 -2 -15 -24 -37 -49 -52 -59 -76 -130
-69 -200 7 -66 45 -142 91 -183 36 -32 118 -62 166 -62 48 0 130 30 166 62 46
41 84 117 91 183 7 70 -17 141 -69 200 -22 25 -39 47 -37 49 2 1 42 12 89 24
109 29 312 128 369 180 l43 41 -3 119 c-5 167 -18 178 -137 118 -140 -70 -373
-129 -512 -129 -139 0 -372 59 -512 129 -76 38 -99 42 -119 17z m701 -523 c73
-20 139 -114 140 -196 0 -59 -26 -127 -66 -168 -19 -20 -39 -36 -44 -36 -5 0
5 26 21 58 31 61 35 91 19 123 -26 48 -86 0 -74 -59 7 -33 -12 -74 -45 -99
-26 -20 -37 -15 -66 27 -25 36 -26 43 -15 70 25 60 -18 113 -61 74 -27 -25
-25 -90 6 -148 29 -55 19 -59 -29 -10 -63 65 -83 171 -47 250 46 101 149 146
261 114z"/>
<path d="M6815 13210 c-171 -45 -347 -123 -409 -180 -31 -28 -65 -46 -136 -69
-216 -70 -561 -265 -1120 -631 -230 -151 -327 -211 -472 -294 -28 -16 -50 -36
-53 -49 -9 -36 68 -258 129 -371 153 -284 409 -579 723 -832 86 -69 243 -174
261 -174 9 0 82 62 170 145 35 33 69 62 74 64 8 3 9 -35 5 -125 l-7 -128 -58
-61 c-90 -93 -220 -269 -429 -580 -142 -211 -288 -398 -682 -874 -585 -706
-612 -737 -958 -1091 -187 -190 -180 -173 -144 -345 50 -238 182 -477 336
-610 l54 -47 -25 -44 -26 -44 26 -45 c79 -135 322 -332 527 -429 200 -95 360
-135 571 -143 l146 -6 -5 -31 c-5 -29 -1 -35 56 -74 69 -49 130 -78 270 -126
207 -72 368 -100 586 -100 148 0 170 2 289 32 71 18 149 41 174 52 24 11 48
20 53 20 4 0 7 -48 6 -107 l-2 -108 85 -57 c47 -32 134 -81 193 -111 l108 -52
-76 3 c-161 9 -442 -25 -660 -79 -216 -53 -482 -162 -569 -232 l-29 -23 32
-165 c18 -90 52 -255 77 -365 24 -111 44 -209 44 -217 0 -9 9 -22 20 -30 24
-17 79 -229 130 -502 55 -289 249 -1258 260 -1295 15 -51 13 -56 -22 -70 -63
-25 -286 -150 -347 -195 -43 -32 -71 -45 -94 -45 -18 0 -62 -10 -98 -22 -78
-26 -173 -113 -184 -169 -6 -28 -22 -45 -97 -99 -49 -36 -120 -98 -158 -137
-39 -40 -74 -73 -79 -73 -24 0 -162 -125 -221 -199 -122 -154 -182 -282 -227
-481 -23 -105 -22 -320 3 -415 17 -63 23 -72 59 -92 121 -68 558 -212 790
-260 109 -22 150 -25 460 -30 276 -4 371 -2 505 11 280 29 477 75 705 166 143
57 185 77 267 128 l58 35 57 -35 c83 -51 125 -71 268 -128 228 -91 425 -137
705 -166 134 -13 229 -15 505 -11 310 5 351 8 460 30 232 48 669 192 790 260
36 20 42 29 59 92 25 95 26 310 3 415 -45 199 -105 327 -227 481 -59 74 -197
199 -221 199 -5 0 -40 33 -79 72 -38 40 -109 102 -158 138 -75 54 -91 71 -97
99 -11 56 -106 143 -184 169 -36 12 -80 22 -98 22 -23 0 -51 13 -94 45 -61 45
-284 170 -346 195 -36 14 -38 19 -23 70 11 37 205 1006 260 1295 51 273 106
485 130 502 11 8 20 21 20 30 0 8 20 106 44 217 25 110 59 275 77 365 l32 165
-29 23 c-87 70 -353 179 -569 232 -218 54 -499 88 -660 79 l-76 -3 108 52 c59
30 146 79 193 111 l85 57 -2 108 c-1 59 2 107 6 107 5 0 29 -9 53 -20 25 -11
103 -34 174 -52 119 -30 141 -32 289 -32 218 0 379 28 586 100 140 48 201 77
270 126 57 39 61 45 56 74 l-5 31 146 6 c211 8 371 48 571 143 205 97 448 294
527 429 l26 45 -26 44 -25 44 54 47 c154 133 286 372 336 610 36 172 43 155
-144 345 -285 292 -400 418 -638 705 -703 846 -837 1015 -1002 1260 -209 311
-339 487 -429 580 l-58 61 -7 128 c-4 90 -3 128 5 125 5 -2 39 -31 74 -64 88
-83 161 -145 170 -145 18 0 175 105 261 174 314 253 570 548 723 832 61 113
138 335 129 371 -3 13 -25 33 -53 49 -145 83 -242 143 -472 294 -559 366 -904
561 -1120 631 -71 23 -105 41 -136 69 -23 21 -76 54 -119 75 -97 45 -297 113
-349 117 -61 5 -64 -9 -37 -160 14 -78 21 -141 17 -158 -19 -72 -211 -309
-328 -401 -83 -66 -266 -177 -337 -204 -75 -28 -167 -28 -242 0 -71 27 -254
138 -337 204 -117 92 -309 329 -328 401 -4 17 3 80 17 158 31 174 27 181 -96
148z m49 -112 c-33 -181 -54 -309 -63 -383 -14 -105 -32 -549 -32 -790 0 -420
-37 -591 -150 -696 -76 -72 -157 -86 -244 -45 -66 31 -107 76 -149 162 -80
165 -108 308 -108 544 1 259 32 450 113 694 48 143 152 346 207 403 40 41 147
93 292 143 158 53 150 55 134 -32z m1752 36 c142 -47 266 -106 305 -147 56
-57 160 -259 208 -403 81 -244 112 -435 113 -694 0 -236 -28 -379 -108 -544
-42 -86 -83 -131 -149 -162 -87 -41 -168 -27 -244 45 -113 105 -150 276 -150
696 0 241 -18 685 -32 790 -9 74 -30 202 -63 383 -10 55 -10 72 -1 72 7 0 61
-16 121 -36z m-2337 -296 c-77 -152 -152 -389 -184 -578 -11 -65 -29 -121 -55
-177 -158 -333 -176 -575 -80 -1081 24 -125 24 -114 -1 -130 -19 -12 -29 -6
-117 65 -183 146 -378 358 -492 533 -81 125 -203 372 -267 540 -28 74 -54 143
-58 152 -5 13 31 42 172 136 98 65 243 158 323 207 80 49 186 113 235 143 191
117 504 270 553 272 7 0 -4 -32 -29 -82z m2889 38 c115 -47 293 -140 437 -228
50 -30 155 -94 235 -143 80 -49 225 -142 323 -207 141 -94 177 -123 172 -136
-4 -9 -30 -78 -58 -152 -64 -168 -186 -415 -267 -540 -114 -175 -309 -387
-492 -533 -88 -71 -98 -77 -117 -65 -25 16 -25 5 -1 130 96 506 78 748 -80
1081 -26 56 -44 112 -55 177 -32 189 -107 426 -184 578 -23 45 -36 82 -31 82
6 0 59 -20 118 -44z m-2226 -156 c37 -47 133 -154 178 -198 68 -67 144 -122
263 -191 153 -90 195 -104 297 -104 102 0 144 14 297 104 119 69 195 124 263
191 95 93 239 268 241 292 1 26 18 -37 20 -77 2 -31 -4 -55 -21 -83 -117 -193
-323 -383 -514 -474 -92 -43 -171 -60 -286 -60 -115 0 -194 17 -286 60 -191
91 -397 281 -514 474 -23 39 -27 75 -14 139 l6 27 25 -37 c14 -21 34 -49 45
-63z m-37 -175 c58 -82 196 -223 279 -284 70 -52 164 -106 225 -131 l45 -17
-85 -7 c-154 -14 -420 -81 -523 -133 l-29 -15 7 223 c9 299 18 452 26 442 3
-4 28 -39 55 -78z m1630 -338 l8 -249 -29 15 c-103 52 -369 119 -523 133 l-85
7 45 17 c60 24 155 79 225 131 85 62 231 212 289 298 l50 73 6 -88 c4 -49 10
-201 14 -337z m-3509 -207 c77 -206 192 -436 298 -595 104 -157 284 -351 454
-490 93 -76 108 -92 98 -106 -15 -21 -137 -129 -146 -129 -16 0 -142 88 -240
169 -382 313 -672 689 -775 1004 -19 60 -35 110 -35 112 0 4 62 40 145 86 33
18 78 45 100 60 22 15 43 24 47 21 4 -4 28 -63 54 -132z m5509 51 c84 -46 145
-82 145 -86 0 -2 -16 -52 -35 -112 -103 -315 -393 -691 -775 -1004 -98 -81
-224 -169 -240 -169 -9 0 -131 108 -146 129 -10 14 5 30 98 106 170 139 350
333 454 490 101 151 222 390 289 570 20 55 43 115 51 133 l14 33 42 -29 c24
-16 70 -43 103 -61z m-2505 -2 c140 -16 309 -62 483 -131 l27 -10 0 -122 c0
-218 30 -397 81 -498 27 -54 95 -126 139 -147 95 -48 186 -46 282 6 60 33 95
75 146 179 67 135 101 293 111 514 l6 145 38 -112 c86 -257 85 -392 -8 -923
-10 -54 -15 -140 -14 -235 l2 -149 -51 -47 c-138 -127 -479 -256 -922 -349
-58 -12 -109 -26 -114 -31 -13 -12 195 -1 309 17 150 22 460 129 625 215 41
21 98 59 127 84 28 25 56 45 62 45 23 0 191 -208 322 -400 327 -478 433 -617
904 -1185 104 -127 206 -250 226 -275 20 -25 107 -126 194 -225 145 -166 224
-253 343 -377 l45 -47 -12 -63 c-15 -73 -74 -218 -128 -309 -35 -60 -219 -259
-239 -259 -8 1 -178 263 -359 554 -70 113 -174 288 -284 481 -35 61 -73 123
-84 139 -11 16 -69 117 -129 225 -112 199 -151 261 -169 261 -5 0 -9 -8 -9
-19 0 -23 101 -229 187 -380 100 -177 183 -321 214 -371 15 -25 70 -117 122
-205 52 -88 143 -236 202 -330 60 -93 155 -244 212 -334 l104 -163 -25 -32
c-118 -155 -353 -340 -545 -428 -129 -59 -388 -128 -482 -128 l-38 0 -22 73
c-11 39 -36 119 -54 177 -18 58 -48 155 -65 215 -17 61 -42 144 -55 185 -13
41 -28 91 -33 110 -5 19 -26 89 -45 155 -113 381 -197 736 -328 1385 -38 190
-76 369 -85 398 -15 52 -29 66 -40 37 -20 -51 162 -964 291 -1460 48 -183 66
-250 79 -295 8 -25 26 -88 41 -140 15 -52 37 -129 50 -170 13 -41 58 -192 101
-335 42 -143 83 -277 90 -298 l13 -37 -132 -64 c-275 -134 -483 -181 -802
-180 -170 0 -198 2 -265 23 -41 12 -80 28 -87 34 -7 7 -20 118 -33 282 -12
149 -30 378 -40 510 -51 646 -92 1063 -105 1085 -3 5 -11 10 -17 10 -15 0 -4
-311 22 -610 31 -349 68 -811 90 -1109 11 -145 23 -286 26 -313 8 -60 4 -64
-102 -128 -230 -140 -523 -230 -744 -230 -221 0 -514 90 -744 230 -106 64
-110 68 -102 128 3 27 15 168 26 313 22 298 59 760 90 1109 26 299 37 610 22
610 -6 0 -14 -5 -17 -10 -13 -22 -54 -439 -105 -1085 -10 -132 -28 -361 -40
-510 -13 -164 -26 -275 -33 -282 -7 -6 -46 -22 -87 -34 -67 -21 -95 -23 -265
-23 -319 -1 -527 46 -802 180 l-132 64 13 37 c7 21 48 155 90 298 43 143 88
294 101 335 13 41 35 118 50 170 15 52 33 115 41 140 13 45 31 112 79 295 129
496 311 1409 291 1460 -11 29 -25 15 -40 -37 -9 -29 -47 -208 -85 -398 -131
-649 -215 -1004 -328 -1385 -19 -66 -40 -136 -45 -155 -5 -19 -20 -69 -33
-110 -13 -41 -38 -124 -55 -185 -17 -60 -47 -157 -65 -215 -18 -58 -43 -138
-54 -177 l-22 -73 -38 0 c-94 0 -353 69 -482 128 -192 88 -427 273 -545 428
l-25 32 104 163 c57 90 152 241 212 334 59 94 150 242 202 330 52 88 107 180
122 205 31 50 114 194 214 371 86 151 187 357 187 380 0 11 -4 19 -9 19 -18 0
-57 -62 -169 -261 -60 -108 -118 -209 -129 -225 -11 -16 -49 -78 -84 -139
-110 -193 -214 -368 -284 -481 -181 -291 -351 -553 -359 -554 -20 0 -204 199
-239 259 -54 91 -113 236 -128 309 l-12 63 45 47 c119 124 198 211 343 377 87
99 174 200 194 225 20 25 122 148 226 275 471 568 577 707 904 1185 131 192
299 400 322 400 6 0 34 -20 62 -45 29 -25 86 -63 127 -84 165 -86 475 -193
625 -215 114 -18 322 -29 309 -17 -5 5 -56 19 -114 31 -443 93 -784 222 -922
349 l-51 47 2 149 c1 95 -4 181 -14 235 -93 531 -94 666 -8 923 l38 112 6
-145 c10 -221 44 -379 111 -514 51 -104 86 -146 146 -179 96 -52 187 -54 282
-6 44 21 112 93 139 147 51 101 81 280 81 499 l0 122 58 21 c208 79 369 116
549 128 157 10 485 5 603 -9z m-838 -6547 c-16 -79 -34 -328 -35 -494 l-2
-208 -85 0 c-47 0 -115 -3 -151 -6 l-65 -7 -22 114 c-12 63 -27 173 -33 244
-11 125 -7 344 6 365 10 17 391 9 387 -8z m1363 8 c13 -21 17 -240 6 -365 -6
-71 -21 -181 -33 -244 l-22 -114 -65 7 c-36 3 -104 6 -151 6 l-85 0 -2 208
c-1 161 -17 389 -34 489 -1 4 -1 11 0 16 2 11 379 9 386 -3z m-1822 -217 c7
-252 21 -360 63 -504 4 -13 -5 -18 -40 -23 -25 -4 -91 -18 -148 -32 -56 -13
-105 -21 -109 -17 -45 45 -149 502 -149 655 0 55 1 57 33 66 55 17 170 43 253
57 43 7 82 13 85 14 3 1 9 -97 12 -216z m853 -148 l-1 -321 -107 0 c-69 1
-111 -3 -119 -11 -8 -8 3 -13 47 -17 87 -10 173 -26 200 -38 27 -13 27 -14 24
-233 -1 -66 -3 -682 -5 -1370 l-5 -1250 -66 -46 c-81 -57 -232 -121 -350 -151
-121 -30 -369 -32 -491 -4 l-83 19 -57 104 c-74 136 -168 251 -275 338 -85 69
-249 165 -282 165 -9 0 -16 5 -16 10 0 16 142 104 275 171 66 33 129 72 139
86 17 23 18 31 8 77 -16 73 -225 1120 -262 1316 -17 91 -49 237 -71 325 -36
147 -38 161 -23 172 24 18 300 125 429 166 122 39 396 97 580 123 143 19 149
23 140 109 -12 113 16 476 44 582 l11 39 159 -19 159 -20 -2 -322z m519 303
c22 -84 36 -244 39 -450 2 -104 8 -193 12 -198 5 -4 63 -15 129 -24 185 -26
458 -84 580 -123 129 -41 405 -148 429 -166 15 -11 13 -25 -23 -172 -22 -88
-54 -234 -71 -325 -37 -196 -246 -1243 -262 -1316 -10 -46 -9 -54 8 -77 10
-14 73 -53 139 -86 133 -67 275 -155 275 -171 0 -5 -7 -10 -16 -10 -33 0 -197
-96 -282 -165 -107 -87 -201 -202 -275 -338 l-57 -104 -83 -19 c-122 -28 -370
-26 -491 4 -118 30 -269 94 -350 151 l-66 46 -5 1250 c-2 688 -4 1304 -5 1370
-3 219 -3 220 24 233 27 12 113 28 200 38 44 4 55 9 47 17 -8 8 -50 12 -119
11 l-107 0 -1 321 -2 322 157 20 c86 10 157 18 159 17 2 -1 10 -26 17 -56z
m610 47 c52 -7 251 -50 279 -61 21 -8 21 -72 0 -213 -21 -144 -48 -267 -85
-383 -44 -140 -35 -134 -157 -104 -56 14 -123 28 -148 32 -35 5 -44 10 -40 23
42 144 56 252 63 504 5 193 8 217 22 213 9 -2 39 -7 66 -11z m-2427 -177 c27
-212 97 -511 138 -591 9 -16 14 -30 12 -32 -2 -2 -50 -19 -107 -38 l-102 -33
-16 30 c-57 111 -147 446 -159 591 l-6 81 73 28 c41 15 83 31 94 36 11 5 29 9
41 9 19 1 22 -7 32 -81z m2897 56 c39 -14 83 -31 99 -36 l28 -11 -6 -81 c-12
-146 -102 -481 -159 -592 l-16 -30 -102 33 c-57 19 -104 35 -106 36 -1 2 9 30
22 64 43 107 112 414 130 586 8 68 10 68 110 31z m-3202 -129 c17 -132 110
-465 168 -603 l19 -43 -23 -8 c-12 -5 -48 -21 -79 -35 -52 -23 -57 -24 -62 -8
-23 85 -120 556 -130 634 l-6 48 52 29 c29 17 53 29 54 28 1 -1 4 -20 7 -42z
m3499 -61 c-4 -62 -99 -530 -128 -636 -5 -16 -10 -15 -62 8 -31 14 -67 30 -79
35 l-23 8 19 43 c55 130 102 292 166 578 2 8 4 28 4 43 l1 29 53 -30 52 -30
-3 -48z m-3728 -3108 c76 -37 199 -135 257 -207 95 -117 159 -259 159 -357 0
-55 -9 -67 -79 -102 -35 -18 -45 -19 -52 -8 -18 30 -128 147 -179 191 -118
102 -276 195 -420 247 l-75 28 62 59 c62 60 227 183 246 183 5 0 42 -15 81
-34z m4031 -28 c48 -34 115 -89 148 -121 l62 -59 -75 -28 c-144 -52 -302 -145
-420 -247 -51 -44 -161 -161 -179 -191 -7 -11 -17 -10 -52 8 -70 35 -79 47
-79 102 0 98 64 240 159 357 58 71 180 170 256 207 38 18 75 34 81 34 6 0 51
-28 99 -62z"/>
<path d="M6504 11650 c-12 -5 -25 -13 -29 -19 -4 -8 -12 -8 -25 -1 -36 19 -89
12 -117 -16 -22 -22 -25 -32 -21 -74 4 -42 2 -53 -17 -70 -28 -27 -38 -70 -24
-110 13 -35 35 -50 78 -50 25 0 33 -6 45 -34 20 -48 71 -65 124 -39 29 14 39
26 47 58 9 36 13 40 45 43 53 5 82 42 78 101 -3 40 -7 48 -33 61 -28 14 -30
18 -27 64 3 39 -1 53 -19 72 -23 25 -65 30 -105 14z m80 -46 c22 -21 20 -46
-4 -77 l-20 -26 -27 25 c-14 13 -32 24 -39 24 -19 0 -17 13 7 44 23 29 60 34
83 10z m-144 -19 c15 -18 16 -16 -33 -50 -41 -27 -52 -26 -60 4 -12 47 62 84
93 46z m68 -85 c48 -45 11 -120 -59 -120 -43 0 -59 19 -59 69 0 20 8 36 26 50
34 27 64 27 92 1z m142 -50 c21 -39 -28 -88 -77 -75 -18 4 -23 10 -18 23 3 9
9 29 12 45 5 23 10 27 39 27 23 0 37 -6 44 -20z m-282 -67 c17 -31 16 -33 -16
-33 -54 0 -67 38 -30 86 l22 28 6 -30 c4 -16 12 -39 18 -51z m162 -70 c0 -24
-34 -53 -62 -53 -20 0 -48 36 -48 62 0 13 8 18 28 19 15 0 36 4 47 8 23 9 35
-3 35 -36z"/>
<path d="M8752 11637 c-19 -20 -23 -34 -20 -73 3 -46 1 -50 -27 -64 -26 -13
-30 -21 -33 -61 -4 -59 25 -96 78 -101 32 -3 36 -7 45 -43 21 -84 139 -97 171
-19 12 28 20 34 45 34 43 0 65 15 78 50 14 40 4 83 -24 110 -19 17 -21 28 -17
70 4 42 1 52 -21 74 -27 27 -87 35 -117 16 -10 -6 -20 -4 -32 7 -9 8 -36 18
-60 20 -36 4 -47 1 -66 -20z m107 -43 c24 -31 26 -44 7 -44 -7 0 -25 -11 -39
-24 l-27 -25 -20 26 c-24 31 -26 56 -4 77 23 24 60 19 83 -10z m144 -15 c15
-20 12 -54 -4 -64 -4 -3 -25 6 -46 20 -49 34 -48 32 -33 50 18 22 66 19 83 -6z
m-59 -80 c18 -14 26 -30 26 -50 0 -50 -16 -69 -57 -69 -72 0 -109 75 -61 120
28 26 58 26 92 -1z m-151 -56 c3 -16 9 -36 12 -45 9 -22 -34 -34 -64 -19 -55
30 -46 91 13 91 29 0 34 -4 39 -27z m267 -52 c0 -25 -20 -41 -52 -41 -32 0
-33 5 -13 40 8 14 15 36 15 50 l1 25 24 -28 c14 -15 25 -36 25 -46z m-144 -51
c30 0 32 -28 5 -61 -16 -20 -23 -22 -46 -14 -36 13 -50 35 -41 68 6 24 9 25
32 17 14 -6 36 -10 50 -10z"/>
<path d="M7400 11755 c-144 -17 -208 -31 -320 -67 -128 -41 -130 -43 -129
-142 1 -45 4 -94 8 -111 6 -27 10 -30 46 -29 22 0 84 13 137 27 158 42 299 58
538 58 239 0 380 -16 538 -58 53 -14 115 -27 137 -27 36 -1 40 2 46 29 4 17 7
66 8 111 1 98 -1 101 -114 138 -230 77 -603 107 -895 71z"/>
<path d="M6990 11341 c-12 -23 2 -182 26 -296 25 -122 115 -287 142 -261 3 3
-13 43 -35 88 -64 130 -92 243 -93 374 0 63 -10 114 -21 114 -5 0 -13 -9 -19
-19z"/>
<path d="M8336 11329 c-3 -17 -6 -55 -6 -83 -1 -131 -29 -244 -93 -374 -22
-45 -38 -85 -35 -88 27 -26 117 139 142 261 24 114 38 273 26 296 -15 28 -27
23 -34 -12z"/>
<path d="M7491 11343 c-61 -6 -96 -33 -115 -90 -49 -143 6 -248 194 -374 44
-29 80 -57 80 -61 0 -4 14 -8 30 -8 17 0 30 4 30 8 0 4 36 32 80 61 188 126
243 231 194 374 -22 66 -55 87 -141 89 -75 2 -121 -16 -144 -59 -7 -13 -15
-23 -19 -23 -4 0 -12 10 -19 23 -25 46 -86 67 -170 60z"/>
<path d="M7225 10710 c-10 -16 0 -25 81 -79 48 -32 109 -62 172 -82 84 -28
111 -32 202 -32 91 0 118 4 202 32 63 20 124 50 172 82 81 54 93 66 79 80 -5
5 -42 -12 -90 -42 -45 -27 -119 -64 -165 -81 -76 -29 -93 -32 -198 -32 -105 0
-122 3 -199 32 -46 17 -116 51 -155 75 -97 60 -94 59 -101 47z"/>
<path d="M3153 11171 c-42 -26 -63 -69 -63 -126 0 -38 5 -52 28 -75 26 -25 27
-31 16 -52 -7 -12 -13 -40 -14 -61 0 -31 7 -46 34 -73 33 -33 34 -36 20 -62
-7 -15 -14 -44 -14 -65 0 -31 7 -46 34 -73 19 -19 47 -37 63 -40 28 -5 29 -9
29 -54 -1 -60 23 -97 82 -125 l41 -19 0 -136 -1 -135 -44 -71 -44 -71 -67 -6
c-70 -7 -103 -26 -103 -60 0 -20 83 -110 109 -119 12 -3 9 -15 -12 -58 -32
-64 -34 -100 -8 -124 26 -24 70 -10 135 44 26 22 51 40 54 40 3 0 20 -11 39
-26 47 -36 87 -48 112 -35 36 19 43 45 26 93 -19 56 -20 55 15 63 41 9 80 42
80 69 0 37 -65 85 -136 100 -28 6 -32 13 -44 62 -8 31 -22 66 -32 79 -14 18
-18 41 -18 110 l0 86 25 -19 c14 -11 41 -23 60 -26 29 -6 35 -11 35 -32 0 -36
36 -101 67 -121 16 -11 43 -17 68 -16 35 1 43 -3 57 -27 29 -51 98 -72 158
-47 10 4 22 -5 35 -26 16 -26 28 -33 59 -35 55 -5 79 3 114 39 89 91 8 231
-114 197 -33 -9 -39 -7 -64 17 -22 21 -39 28 -74 29 -42 1 -45 3 -51 32 -8 43
-39 80 -79 95 -27 10 -35 20 -44 55 -13 48 -57 87 -109 99 -27 5 -33 11 -33
32 0 29 -26 87 -46 104 -8 6 -31 17 -51 24 -37 13 -38 14 -38 63 0 42 -5 56
-29 81 -16 17 -37 33 -47 36 -13 5 -15 12 -10 38 9 40 -2 83 -28 111 -20 21
-20 24 -5 63 11 27 14 54 10 76 -15 78 -115 121 -183 78z m128 -251 c24 -13
26 -72 3 -94 -33 -34 -104 -8 -104 37 0 27 38 67 62 67 11 0 28 -5 39 -10z
m218 -376 c28 -36 26 -57 -9 -92 -38 -38 -72 -47 -110 -27 -29 15 -36 32 -31
80 6 64 109 90 150 39z m270 -310 c33 -42 6 -117 -46 -130 -60 -15 -103 103
-50 139 34 25 73 21 96 -9z m342 -170 c6 -8 12 -26 12 -41 0 -49 -73 -84 -102
-49 -14 17 -18 67 -6 85 18 30 73 32 96 5z m-553 -210 c41 -19 72 -37 69 -40
-2 -3 -26 -10 -52 -17 -66 -17 -75 -34 -45 -91 14 -25 21 -48 17 -52 -3 -4
-28 9 -53 30 -26 20 -55 36 -64 36 -9 0 -45 -22 -79 -50 -34 -27 -65 -50 -67
-50 -3 0 8 26 25 57 38 70 39 88 4 110 -106 67 -109 83 -15 83 l52 0 47 73 47
72 19 -64 19 -63 76 -34z"/>
<path d="M12095 11180 c-61 -25 -88 -99 -61 -165 16 -37 15 -39 -4 -60 -27
-29 -38 -72 -29 -112 5 -26 3 -33 -10 -38 -10 -3 -31 -19 -47 -36 -24 -25 -29
-39 -29 -81 0 -49 -1 -50 -38 -63 -20 -7 -43 -18 -51 -24 -20 -17 -46 -75 -46
-104 0 -21 -6 -27 -32 -32 -53 -12 -97 -51 -110 -99 -9 -35 -17 -45 -44 -55
-40 -15 -71 -52 -79 -95 -6 -29 -9 -31 -51 -32 -35 -1 -52 -8 -74 -29 -25 -24
-31 -26 -64 -17 -61 17 -119 -9 -143 -66 -19 -45 -8 -93 29 -131 35 -36 59
-44 114 -39 31 2 43 9 59 35 13 21 25 30 35 26 60 -25 129 -4 158 47 14 24 22
28 57 27 25 -1 52 5 68 16 31 20 67 85 67 121 0 21 6 26 35 32 19 3 46 15 60
26 l25 19 0 -51 0 -51 -34 6 c-47 9 -74 -1 -91 -35 -32 -62 -15 -109 68 -188
72 -68 90 -67 155 2 63 67 97 133 88 170 -8 32 -63 60 -99 51 -23 -6 -23 -5
-25 92 l-3 98 43 20 c59 28 83 65 82 125 0 45 1 49 29 54 16 3 44 21 63 40 27
27 34 42 34 73 0 21 -7 50 -14 65 -14 26 -13 29 20 62 27 27 34 42 34 73 -1
21 -7 49 -14 61 -11 21 -10 27 16 52 23 23 28 37 28 77 0 102 -88 169 -175
133z m95 -72 c61 -66 -21 -156 -85 -92 -21 22 -20 90 3 103 28 17 60 12 82
-11z m-33 -200 c41 -39 18 -98 -38 -98 -37 0 -59 24 -59 65 0 55 54 73 97 33z
m-57 -177 c58 -41 49 -115 -15 -127 -49 -9 -83 8 -100 51 -35 82 38 130 115
76z m-112 -184 c38 -40 34 -100 -8 -122 -38 -20 -72 -11 -110 27 -35 35 -37
56 -9 92 28 35 95 37 127 3z m-158 -157 c26 -26 30 -80 8 -107 -26 -31 -130 5
-141 49 -15 56 89 102 133 58z m-145 -146 c55 -36 13 -156 -48 -140 -52 13
-79 88 -46 130 24 30 58 34 94 10z m-170 -138 c39 -39 4 -105 -49 -92 -55 14
-70 87 -23 106 35 14 46 12 72 -14z m-169 -55 c14 -27 4 -70 -18 -85 -41 -25
-105 32 -89 78 18 48 84 52 107 7z"/>
</g>
</svg>
