<svg  viewBox="0 0 800 800" xmlns="http://www.w3.org/2000/svg">
<path d="M555.786 475.851C555.786 475.851 552.952 494.328 540.989 498.085C540.989 498.085 535.395 499.771 529.719 497.548C529.719 497.548 524.199 495.401 520.596 490.417C520.596 490.417 517.144 485.587 516.459 478.304C516.459 478.304 515.944 473.244 516.687 465.041C516.687 465.041 517.836 459.367 520.824 454.768C520.824 454.768 524.196 449.554 528.951 447.407C528.951 447.407 532.86 445.874 537.921 446.258C537.921 446.258 542.824 446.641 546.508 448.558C546.508 448.558 557.78 457.681 555.786 475.851ZM423.917 534.961C423.917 534.961 414.794 541.095 401.991 540.634C401.991 540.634 390.567 540.251 379.911 535.038C379.911 535.038 374.391 532.278 371.86 526.681C371.86 526.681 369.409 521.314 370.249 514.644C370.249 514.644 370.94 509.584 373.472 505.444C373.472 505.444 376.386 500.921 380.832 498.698C380.832 498.698 389.419 493.024 401.532 493.254C401.532 493.254 413.338 493.489 422.462 498.928C422.462 498.928 426.753 500.921 429.668 505.138C429.668 505.138 432.503 509.278 433.12 514.184C433.12 514.184 433.885 520.548 431.434 525.991C431.434 525.991 429.054 531.434 423.917 534.961ZM252.646 446.261C252.646 446.261 257.32 444.344 262.766 445.723C262.766 445.723 267.366 446.873 271.66 450.17C271.66 450.17 276.568 455.384 277.869 463.74C277.869 463.74 278.864 470.18 277.869 479.304C277.869 479.304 276.875 485.131 274.264 489.501C274.264 489.501 271.047 494.714 266.061 496.861C266.061 496.861 260.234 498.854 254.331 497.933C254.331 497.933 247.968 496.861 244.134 492.72C244.134 492.72 238.923 486.51 238.154 476.85C238.154 476.85 237.463 468.417 240.223 459.447C240.223 459.447 241.68 455.153 244.977 451.55C244.977 451.55 248.505 447.563 252.646 446.261Z" />
</svg>
