<svg width="1596" height="2387" viewBox="0 0 1596 2387" fill="none" xmlns="http://www.w3.org/2000/svg">
<path d="M743.2 1.33321C696.667 4.66671 642.667 21.2 594.133 46.9333C555.867 67.0667 530.133 88 501.467 122C463.733 166.667 442.667 210.267 435.2 258.667C431.333 283.467 433.733 328.933 440.8 362.267C444.8 381.6 454.933 412.667 461.867 427.333C474.533 454 504.933 497.867 523.333 516C566.4 558.667 627.333 590.933 700 609.734C720.267 614.933 719.067 613.067 719.2 636.667C719.333 656.933 718.133 661.067 710.667 667.734C703.2 674.4 696 677.734 663.333 690.267C625.333 704.933 586.8 723.6 556.667 742.133C542.4 750.933 523.467 762.267 514.667 767.2C462.8 796.933 441.2 810 347.467 869.2C329.467 880.533 205.467 963.467 195.733 970.533L191.733 973.467L185.2 969.333C177.467 964.4 160.533 958.933 150.133 957.867C132.533 956 96.4 964.533 74.8 975.734C37.8667 994.8 9.73336 1032.13 2.53336 1072C0.133365 1085.87 0.133364 1112.4 2.80003 1124.93C6.80003 1144.4 20 1171.87 34.9334 1192C43.3334 1203.33 63.7334 1223.47 76.1334 1232.8C88.9334 1242.53 109.867 1254 120.667 1257.47C139.067 1263.2 169.067 1265.47 187.333 1262.53C200.4 1260.53 225.467 1252.4 236.667 1246.53C259.867 1234.53 285.867 1206.27 295.467 1182.67C301.733 1167.07 303.733 1155.87 304.4 1130.67L304.933 1107.33L310.533 1103.2C332.933 1086.53 383.2 1054.93 428.667 1029.07C477.333 1001.47 566 956.267 568.533 957.867C570.8 959.333 573.333 979.734 573.333 996C573.2 1018.27 569.467 1032.67 550.667 1083.33C532.667 1131.6 519.467 1176.4 510.8 1218.67C498.933 1276.67 499.067 1349.6 511.333 1470C519.867 1554.13 526.4 1590.93 547.467 1675.33C551.6 1691.73 557.733 1723.33 563.467 1757.33C572.8 1812.93 576.667 1835.73 579.333 1849.33C580.133 1853.33 581.867 1863.6 583.333 1872C588.533 1901.33 596.933 1946.27 602.667 1974.67C612.8 2024.4 624.267 2088.93 623.2 2089.87C622.933 2090.13 614.8 2094.27 605.333 2099.07C574.8 2114.27 541.067 2137.87 507.333 2167.6C480.4 2191.47 467.067 2208.53 451.6 2239.47C439.333 2263.73 432 2283.2 424.533 2310.13C418.8 2331.07 418.933 2338.53 424.933 2345.07C432.4 2353.07 457.733 2360.4 528 2374.53C594.267 2387.87 637.2 2389.47 686 2380.53C729.2 2372.53 754.8 2363.2 787.067 2343.6L798 2336.93L809.067 2343.6C841.2 2363.2 866.8 2372.53 910 2380.53C958.8 2389.47 1001.73 2387.87 1068 2374.53C1138.27 2360.4 1163.6 2353.07 1171.07 2345.07C1177.07 2338.53 1177.2 2331.07 1171.47 2310.13C1158.4 2262.67 1138 2220.8 1114.27 2192.53C1110 2187.47 1098.53 2176.4 1088.67 2167.6C1054 2137.2 1021.73 2114.4 990.8 2099.07C981.2 2094.27 973.067 2090.13 972.8 2089.87C971.733 2088.93 983.2 2024.4 993.333 1974.67C999.067 1946.27 1007.47 1901.33 1012.67 1872C1014.13 1863.6 1015.87 1853.33 1016.67 1849.33C1019.33 1835.73 1023.2 1812.93 1032.53 1757.33C1038.27 1723.33 1044.4 1691.73 1048.53 1675.33C1069.6 1590.93 1076.13 1554.13 1084.67 1470C1096.93 1349.6 1097.07 1276.67 1085.2 1218.67C1076.53 1176.4 1063.33 1131.6 1045.33 1083.33C1026.53 1032.67 1022.8 1018.27 1022.67 996C1022.67 979.734 1025.2 959.333 1027.47 957.867C1030 956.267 1118.67 1001.47 1167.33 1029.07C1212.93 1054.93 1263.2 1086.4 1285.07 1102.93L1291.07 1107.33L1291.6 1130.67C1292.67 1170.53 1299.07 1188.4 1321.73 1215.47C1338.93 1235.87 1357.6 1248.13 1384.67 1256.53C1410.27 1264.4 1427.2 1265.73 1453.33 1262C1471.33 1259.47 1481.6 1256 1497.07 1247.47C1514.13 1238 1526.93 1228.27 1542.13 1213.07C1556.8 1198.67 1564.8 1188.13 1574.67 1170.8C1589.87 1144.4 1595.33 1124.93 1595.33 1098.4C1595.2 1064.53 1587.6 1042 1567.47 1015.07C1549.2 990.8 1526.27 974.8 1496 965.467C1479.47 960.4 1455.87 956.8 1445.87 957.867C1435.47 958.933 1418.53 964.4 1410.8 969.333L1404.27 973.467L1400.27 970.533C1390.53 963.467 1266.53 880.533 1248.53 869.2C1154.8 810 1133.2 796.933 1081.33 767.2C1072.53 762.267 1053.6 750.933 1039.33 742.133C1009.2 723.6 970.667 704.933 932.667 690.267C900 677.734 892.8 674.4 885.333 667.734C877.867 661.067 876.667 656.933 876.8 636.667C876.933 613.067 875.733 614.933 896 609.734C968.667 590.933 1029.6 558.667 1072.67 516C1091.07 497.867 1121.47 454 1134.13 427.333C1151.6 390.8 1162.8 336.533 1162.53 290.667C1162.27 261.6 1159.07 241.733 1150.4 216C1135.07 170.267 1095.73 115.733 1052 79.3333C1010.27 44.3999 932.933 11.8667 871.333 3.19991C854.933 0.800013 767.867 -0.400182 743.2 1.33321ZM856.667 13.8667C879.6 17.0667 901.067 22.2666 928.133 31.3333C964.8 43.5999 996.8 58.3999 1022.67 75.2C1060.8 100.133 1101.33 146.133 1123.87 190.667C1134 210.533 1137.6 220.4 1143.87 244.667L1149.33 266L1149.2 296.667C1149.07 329.6 1147.2 345.733 1139.87 376C1132.53 405.6 1124.8 421.867 1100.93 458C1085.73 481.067 1082.4 485.067 1064.13 503.333C1043.07 524.4 1025.73 538.267 1005.33 550.4C965.867 573.867 907.467 595.067 862.533 602.267C841.333 605.734 754.667 605.734 733.467 602.267C688.533 595.067 630.133 573.867 590.667 550.4C570.267 538.267 552.933 524.4 531.867 503.333C513.6 485.067 510.267 481.067 495.067 458C471.2 421.867 463.467 405.6 456.133 376C448.8 345.733 446.933 329.6 446.8 296.667L446.667 266L452.133 244.667C458.4 220.4 462 210.533 472.133 190.667C494.667 146.133 535.2 100.133 573.333 75.2C623.6 42.6667 696.933 17.2 756 12C775.467 10.2666 839.867 11.4666 856.667 13.8667ZM756.533 618.667C786.533 620.933 845.867 619.734 860 616.667C862.533 616.133 862.667 616.8 862.8 639.333L862.933 662.533L866.667 668C868.8 671.067 873.467 676.133 876.933 679.333C882.933 684.667 885.867 686 913.067 694.8C961.6 710.4 990.267 722.667 1020.13 740.133C1037.73 750.4 1120.13 802.933 1161.6 830.133C1200.4 855.734 1206.67 859.734 1240.67 881.067C1252.8 888.8 1273.2 902 1286 910.533C1330.67 940.4 1384 976.533 1392.8 982.933C1397.73 986.4 1402.27 989.333 1403.2 989.333C1404 989.333 1409.87 986.4 1416.13 982.8C1434.4 972.267 1448 970.134 1470.8 974C1502.13 979.333 1528.4 992.667 1547.07 1012.53C1576.4 1044 1586.27 1079.2 1577.33 1120.67C1569.73 1156.13 1560.4 1173.47 1534.67 1199.33C1509.87 1224.67 1485.33 1240.53 1462.53 1246.27C1448 1249.87 1412.8 1249.6 1398.4 1245.6C1383.07 1241.47 1362.8 1232.67 1353.2 1225.87C1338.8 1215.73 1321.47 1194.93 1314.67 1179.33C1307.6 1163.47 1304 1139.47 1305.33 1116.93C1305.73 1108.67 1305.6 1101.33 1305.07 1100.53C1301.33 1095.6 1245.47 1058.4 1210.67 1037.87C1159.87 1007.87 1102.67 977.067 1058.67 956L1030.67 942.667L1030.93 938.4C1031.07 936 1031.6 922.8 1032.13 909.2C1033.07 882.4 1031.33 866 1025.73 848.933C1020.8 833.867 1012.27 820 1007.87 820C1006.27 820 1006.27 820.8 1008.13 824.933C1012.93 836 1019.2 857.2 1020.53 867.067C1022.4 880.267 1022.4 908.134 1020.67 922.267C1019.87 928.267 1017.07 941.734 1014.27 952.267C1009.47 970.667 1009.33 972.134 1009.33 994.667C1009.33 1024.67 1010.8 1031.07 1026.93 1074.67C1079.33 1215.07 1088.13 1279.87 1074.67 1425.33C1064.67 1533.87 1055.6 1591.47 1039.47 1650.13C1031.6 1679.07 1029.6 1688.67 1019.33 1750C1014.8 1776.4 1010 1804.53 1008.67 1812.67C1006.13 1827.73 998.133 1872.27 991.2 1910C991.178 1910.12 991.156 1910.24 991.134 1910.36C989.012 1922.03 986.388 1936.46 985.2 1942.67C984.133 1948.93 982.667 1956.13 982 1958.67C980.133 1966 966.267 2038.27 962 2063.73C957.6 2089.07 957.2 2095.73 959.733 2098.93C960.533 2100.13 966.933 2103.6 973.867 2106.67C1001.73 2118.93 1032.4 2138.8 1063.33 2164.53C1102.67 2197.2 1116.67 2214.13 1134 2250C1148 2279.33 1162.27 2322.93 1160.27 2330.93C1159.2 2335.07 1150.13 2340.13 1136.67 2344C1131.2 2345.6 1123.73 2347.73 1120 2348.8C1112.93 2350.8 1054.67 2362.8 1035.33 2366.13C1017.73 2369.33 987.067 2372 968.667 2372C936.8 2372 895.2 2364.93 863.067 2353.87C843.2 2347.07 840 2345.47 820.4 2333.73L806 2325.2L805.867 2285.6C805.067 1861.47 805.067 1533.33 806.133 1519.33C806.8 1509.73 807.867 1488.53 808.667 1472C809.333 1455.47 810.667 1438.13 811.467 1433.33C813.467 1421.87 819.6 1410 825.067 1406.67C827.333 1405.2 841.067 1398.8 855.333 1392.53C920.4 1363.6 974 1334 974 1326.8C974 1324 970.4 1325.33 959.2 1332.13C929.733 1349.87 881.2 1370.93 827.333 1389.07C811.6 1394.4 807.867 1395.2 798 1395.2C788.133 1395.2 784.4 1394.4 768.667 1389.07C714.8 1370.93 666.267 1349.87 636.8 1332.13C625.6 1325.33 622 1324 622 1326.8C622 1334 675.6 1363.6 740.667 1392.53C754.933 1398.8 768.667 1405.2 770.933 1406.67C776.4 1410 782.533 1421.87 784.533 1433.33C785.333 1438.13 786.667 1455.47 787.333 1472C788.133 1488.53 789.2 1509.73 789.867 1519.33C790.933 1533.33 790.933 1861.47 790.133 2285.6L790 2325.2L775.733 2333.73C756 2345.47 752.8 2347.07 732.933 2353.87C700.8 2364.93 659.2 2372 627.333 2372C608.933 2372 578.267 2369.33 560.667 2366.13C541.333 2362.8 483.067 2350.8 476 2348.8C472.4 2347.73 464.8 2345.6 459.333 2344C445.867 2340.13 436.8 2335.07 435.733 2330.93C433.733 2322.93 448 2279.33 462 2250C479.333 2214.13 493.333 2197.2 532.667 2164.53C563.6 2138.8 594.267 2118.93 622.133 2106.67C629.067 2103.6 635.467 2100.13 636.4 2098.93C638.8 2095.73 638.4 2089.07 634 2063.73C629.733 2038.27 615.867 1966 614 1958.67C613.333 1956.13 611.867 1948.93 610.8 1942.67C609.612 1936.46 606.988 1922.03 604.866 1910.36C604.844 1910.24 604.822 1910.12 604.8 1910C597.867 1872.27 589.867 1827.73 587.333 1812.67C586 1804.53 581.2 1776.4 576.667 1750C566.4 1688.67 564.4 1679.07 556.533 1650.13C540.4 1591.47 531.333 1533.87 521.333 1425.33C507.867 1279.87 516.667 1215.07 569.067 1074.67C585.2 1031.07 586.667 1024.67 586.667 994.667C586.667 972.134 586.533 970.667 581.733 952.267C578.933 941.734 576.133 928.267 575.333 922.267C573.6 908.134 573.6 880.267 575.467 867.067C576.8 857.2 583.067 836 587.867 824.933C589.733 820.8 589.733 820 588.133 820C583.733 820 575.2 833.867 570.267 848.933C564.667 866 562.933 882.4 563.867 909.2C564.4 922.8 564.933 936 565.067 938.4L565.333 942.667L537.333 956C493.333 977.067 436.133 1007.87 385.333 1037.87C350.533 1058.4 294.667 1095.6 290.933 1100.53C290.4 1101.33 290.267 1108.67 290.667 1116.93C292 1139.47 288.4 1163.47 281.333 1179.33C274.533 1194.93 257.2 1215.73 242.8 1225.87C233.2 1232.67 212.933 1241.47 197.6 1245.6C183.2 1249.6 148 1249.87 133.467 1246.27C110.667 1240.53 86.1334 1224.67 61.3334 1199.33C35.6 1173.47 26.2667 1156.13 18.6667 1120.67C9.73336 1079.2 19.6 1044 48.9334 1012.53C67.6 992.667 93.8667 979.333 125.2 974C148 970.134 161.6 972.267 179.867 982.8C186.133 986.4 192 989.333 192.8 989.333C193.733 989.333 198.267 986.4 203.2 982.933C212 976.533 265.333 940.4 310 910.533C322.8 902 343.2 888.8 355.333 881.067C389.333 859.734 395.6 855.734 434.4 830.133C475.867 802.933 558.267 750.4 575.867 740.133C605.733 722.667 634.4 710.4 682.933 694.8C710.133 686 713.067 684.667 719.067 679.333C722.533 676.133 727.2 671.067 729.333 668L733.067 662.533L733.2 639.333C733.333 616.8 733.467 616.133 736 616.667C737.467 617.067 746.8 617.867 756.533 618.667Z" fill="black"/>
<path d="M756.533 618.667C786.533 620.933 845.867 619.734 860 616.667C862.533 616.133 862.667 616.8 862.8 639.333L862.933 662.533L866.667 668C868.8 671.067 873.467 676.133 876.933 679.333C882.933 684.667 885.867 686 913.067 694.8C961.6 710.4 990.267 722.667 1020.13 740.133C1037.73 750.4 1120.13 802.933 1161.6 830.133C1200.4 855.734 1206.67 859.734 1240.67 881.067C1252.8 888.8 1273.2 902 1286 910.533C1330.67 940.4 1384 976.533 1392.8 982.933C1397.73 986.4 1402.27 989.333 1403.2 989.333C1404 989.333 1409.87 986.4 1416.13 982.8C1434.4 972.267 1448 970.134 1470.8 974C1502.13 979.333 1528.4 992.667 1547.07 1012.53C1576.4 1044 1586.27 1079.2 1577.33 1120.67C1569.73 1156.13 1560.4 1173.47 1534.67 1199.33C1509.87 1224.67 1485.33 1240.53 1462.53 1246.27C1448 1249.87 1412.8 1249.6 1398.4 1245.6C1383.07 1241.47 1362.8 1232.67 1353.2 1225.87C1338.8 1215.73 1321.47 1194.93 1314.67 1179.33C1307.6 1163.47 1304 1139.47 1305.33 1116.93C1305.73 1108.67 1305.6 1101.33 1305.07 1100.53C1301.33 1095.6 1245.47 1058.4 1210.67 1037.87C1159.87 1007.87 1102.67 977.067 1058.67 956L1030.67 942.667L1030.93 938.4C1031.07 936 1031.6 922.8 1032.13 909.2C1033.07 882.4 1031.33 866 1025.73 848.933C1020.8 833.867 1012.27 820 1007.87 820C1006.27 820 1006.27 820.8 1008.13 824.933C1012.93 836 1019.2 857.2 1020.53 867.067C1022.4 880.267 1022.4 908.134 1020.67 922.267C1019.87 928.267 1017.07 941.734 1014.27 952.267C1009.47 970.667 1009.33 972.134 1009.33 994.667C1009.33 1024.67 1010.8 1031.07 1026.93 1074.67C1079.33 1215.07 1088.13 1279.87 1074.67 1425.33C1064.67 1533.87 1055.6 1591.47 1039.47 1650.13C1031.6 1679.07 1029.6 1688.67 1019.33 1750C1014.8 1776.4 1010 1804.53 1008.67 1812.67C1006.13 1827.73 998.133 1872.27 991.2 1910L991.134 1910.36C989.012 1922.03 986.388 1936.46 985.2 1942.67C984.133 1948.93 982.667 1956.13 982 1958.67C980.133 1966 966.267 2038.27 962 2063.73C957.6 2089.07 957.2 2095.73 959.733 2098.93C960.533 2100.13 966.933 2103.6 973.867 2106.67C1001.73 2118.93 1032.4 2138.8 1063.33 2164.53C1102.67 2197.2 1116.67 2214.13 1134 2250C1148 2279.33 1162.27 2322.93 1160.27 2330.93C1159.2 2335.07 1150.13 2340.13 1136.67 2344C1131.2 2345.6 1123.73 2347.73 1120 2348.8C1112.93 2350.8 1054.67 2362.8 1035.33 2366.13C1017.73 2369.33 987.067 2372 968.667 2372C936.8 2372 895.2 2364.93 863.067 2353.87C843.2 2347.07 840 2345.47 820.4 2333.73L806 2325.2L805.867 2285.6C805.067 1861.47 805.067 1533.33 806.133 1519.33C806.8 1509.73 807.867 1488.53 808.667 1472C809.333 1455.47 810.667 1438.13 811.467 1433.33C813.467 1421.87 819.6 1410 825.067 1406.67C827.333 1405.2 841.067 1398.8 855.333 1392.53C920.4 1363.6 974 1334 974 1326.8C974 1324 970.4 1325.33 959.2 1332.13C929.733 1349.87 881.2 1370.93 827.333 1389.07C811.6 1394.4 807.867 1395.2 798 1395.2C788.133 1395.2 784.4 1394.4 768.667 1389.07C714.8 1370.93 666.267 1349.87 636.8 1332.13C625.6 1325.33 622 1324 622 1326.8C622 1334 675.6 1363.6 740.667 1392.53C754.933 1398.8 768.667 1405.2 770.933 1406.67C776.4 1410 782.533 1421.87 784.533 1433.33C785.333 1438.13 786.667 1455.47 787.333 1472C788.133 1488.53 789.2 1509.73 789.867 1519.33C790.933 1533.33 790.933 1861.47 790.133 2285.6L790 2325.2L775.733 2333.73C756 2345.47 752.8 2347.07 732.933 2353.87C700.8 2364.93 659.2 2372 627.333 2372C608.933 2372 578.267 2369.33 560.667 2366.13C541.333 2362.8 483.067 2350.8 476 2348.8C472.4 2347.73 464.8 2345.6 459.333 2344C445.867 2340.13 436.8 2335.07 435.733 2330.93C433.733 2322.93 448 2279.33 462 2250C479.333 2214.13 493.333 2197.2 532.667 2164.53C563.6 2138.8 594.267 2118.93 622.133 2106.67C629.067 2103.6 635.467 2100.13 636.4 2098.93C638.8 2095.73 638.4 2089.07 634 2063.73C629.733 2038.27 615.867 1966 614 1958.67C613.333 1956.13 611.867 1948.93 610.8 1942.67C609.612 1936.46 606.988 1922.03 604.866 1910.36L604.8 1910C597.867 1872.27 589.867 1827.73 587.333 1812.67C586 1804.53 581.2 1776.4 576.667 1750C566.4 1688.67 564.4 1679.07 556.533 1650.13C540.4 1591.47 531.333 1533.87 521.333 1425.33C507.867 1279.87 516.667 1215.07 569.067 1074.67C585.2 1031.07 586.667 1024.67 586.667 994.667C586.667 972.134 586.533 970.667 581.733 952.267C578.933 941.734 576.133 928.267 575.333 922.267C573.6 908.134 573.6 880.267 575.467 867.067C576.8 857.2 583.067 836 587.867 824.933C589.733 820.8 589.733 820 588.133 820C583.733 820 575.2 833.867 570.267 848.933C564.667 866 562.933 882.4 563.867 909.2C564.4 922.8 564.933 936 565.067 938.4L565.333 942.667L537.333 956C493.333 977.067 436.133 1007.87 385.333 1037.87C350.533 1058.4 294.667 1095.6 290.933 1100.53C290.4 1101.33 290.267 1108.67 290.667 1116.93C292 1139.47 288.4 1163.47 281.333 1179.33C274.533 1194.93 257.2 1215.73 242.8 1225.87C233.2 1232.67 212.933 1241.47 197.6 1245.6C183.2 1249.6 148 1249.87 133.467 1246.27C110.667 1240.53 86.1334 1224.67 61.3334 1199.33C35.6 1173.47 26.2667 1156.13 18.6667 1120.67C9.73336 1079.2 19.6 1044 48.9334 1012.53C67.6 992.667 93.8667 979.333 125.2 974C148 970.134 161.6 972.267 179.867 982.8C186.133 986.4 192 989.333 192.8 989.333C193.733 989.333 198.267 986.4 203.2 982.933C212 976.533 265.333 940.4 310 910.533C322.8 902 343.2 888.8 355.333 881.067C389.333 859.734 395.6 855.734 434.4 830.133C475.867 802.933 558.267 750.4 575.867 740.133C605.733 722.667 634.4 710.4 682.933 694.8C710.133 686 713.067 684.667 719.067 679.333C722.533 676.133 727.2 671.067 729.333 668L733.067 662.533L733.2 639.333C733.333 616.8 733.467 616.133 736 616.667C737.467 617.067 746.8 617.867 756.533 618.667Z" fill="black"/>
<path d="M756.533 618.667C786.533 620.933 845.867 619.734 860 616.667C862.533 616.133 862.667 616.8 862.8 639.333L862.933 662.533L866.667 668C868.8 671.067 873.467 676.133 876.933 679.333C882.933 684.667 885.867 686 913.067 694.8C961.6 710.4 990.267 722.667 1020.13 740.133C1037.73 750.4 1120.13 802.933 1161.6 830.133C1200.4 855.734 1206.67 859.734 1240.67 881.067C1252.8 888.8 1273.2 902 1286 910.533C1330.67 940.4 1384 976.533 1392.8 982.933C1397.73 986.4 1402.27 989.333 1403.2 989.333C1404 989.333 1409.87 986.4 1416.13 982.8C1434.4 972.267 1448 970.134 1470.8 974C1502.13 979.333 1528.4 992.667 1547.07 1012.53C1576.4 1044 1586.27 1079.2 1577.33 1120.67C1569.73 1156.13 1560.4 1173.47 1534.67 1199.33C1509.87 1224.67 1485.33 1240.53 1462.53 1246.27C1448 1249.87 1412.8 1249.6 1398.4 1245.6C1383.07 1241.47 1362.8 1232.67 1353.2 1225.87C1338.8 1215.73 1321.47 1194.93 1314.67 1179.33C1307.6 1163.47 1304 1139.47 1305.33 1116.93C1305.73 1108.67 1305.6 1101.33 1305.07 1100.53C1301.33 1095.6 1245.47 1058.4 1210.67 1037.87C1159.87 1007.87 1102.67 977.067 1058.67 956L1030.67 942.667L1030.93 938.4C1031.07 936 1031.6 922.8 1032.13 909.2C1033.07 882.4 1031.33 866 1025.73 848.933C1020.8 833.867 1012.27 820 1007.87 820C1006.27 820 1006.27 820.8 1008.13 824.933C1012.93 836 1019.2 857.2 1020.53 867.067C1022.4 880.267 1022.4 908.134 1020.67 922.267C1019.87 928.267 1017.07 941.734 1014.27 952.267C1009.47 970.667 1009.33 972.134 1009.33 994.667C1009.33 1024.67 1010.8 1031.07 1026.93 1074.67C1079.33 1215.07 1088.13 1279.87 1074.67 1425.33C1064.67 1533.87 1055.6 1591.47 1039.47 1650.13C1031.6 1679.07 1029.6 1688.67 1019.33 1750C1014.8 1776.4 1010 1804.53 1008.67 1812.67C1006.13 1827.73 998.133 1872.27 991.2 1910L991.134 1910.36C989.012 1922.03 986.388 1936.46 985.2 1942.67C984.133 1948.93 982.667 1956.13 982 1958.67C980.133 1966 966.267 2038.27 962 2063.73C957.6 2089.07 957.2 2095.73 959.733 2098.93C960.533 2100.13 966.933 2103.6 973.867 2106.67C1001.73 2118.93 1032.4 2138.8 1063.33 2164.53C1102.67 2197.2 1116.67 2214.13 1134 2250C1148 2279.33 1162.27 2322.93 1160.27 2330.93C1159.2 2335.07 1150.13 2340.13 1136.67 2344C1131.2 2345.6 1123.73 2347.73 1120 2348.8C1112.93 2350.8 1054.67 2362.8 1035.33 2366.13C1017.73 2369.33 987.067 2372 968.667 2372C936.8 2372 895.2 2364.93 863.067 2353.87C843.2 2347.07 840 2345.47 820.4 2333.73L806 2325.2L805.867 2285.6C805.067 1861.47 805.067 1533.33 806.133 1519.33C806.8 1509.73 807.867 1488.53 808.667 1472C809.333 1455.47 810.667 1438.13 811.467 1433.33C813.467 1421.87 819.6 1410 825.067 1406.67C827.333 1405.2 841.067 1398.8 855.333 1392.53C920.4 1363.6 974 1334 974 1326.8C974 1324 970.4 1325.33 959.2 1332.13C929.733 1349.87 881.2 1370.93 827.333 1389.07C811.6 1394.4 807.867 1395.2 798 1395.2C788.133 1395.2 784.4 1394.4 768.667 1389.07C714.8 1370.93 666.267 1349.87 636.8 1332.13C625.6 1325.33 622 1324 622 1326.8C622 1334 675.6 1363.6 740.667 1392.53C754.933 1398.8 768.667 1405.2 770.933 1406.67C776.4 1410 782.533 1421.87 784.533 1433.33C785.333 1438.13 786.667 1455.47 787.333 1472C788.133 1488.53 789.2 1509.73 789.867 1519.33C790.933 1533.33 790.933 1861.47 790.133 2285.6L790 2325.2L775.733 2333.73C756 2345.47 752.8 2347.07 732.933 2353.87C700.8 2364.93 659.2 2372 627.333 2372C608.933 2372 578.267 2369.33 560.667 2366.13C541.333 2362.8 483.067 2350.8 476 2348.8C472.4 2347.73 464.8 2345.6 459.333 2344C445.867 2340.13 436.8 2335.07 435.733 2330.93C433.733 2322.93 448 2279.33 462 2250C479.333 2214.13 493.333 2197.2 532.667 2164.53C563.6 2138.8 594.267 2118.93 622.133 2106.67C629.067 2103.6 635.467 2100.13 636.4 2098.93C638.8 2095.73 638.4 2089.07 634 2063.73C629.733 2038.27 615.867 1966 614 1958.67C613.333 1956.13 611.867 1948.93 610.8 1942.67C609.612 1936.46 606.988 1922.03 604.866 1910.36L604.8 1910C597.867 1872.27 589.867 1827.73 587.333 1812.67C586 1804.53 581.2 1776.4 576.667 1750C566.4 1688.67 564.4 1679.07 556.533 1650.13C540.4 1591.47 531.333 1533.87 521.333 1425.33C507.867 1279.87 516.667 1215.07 569.067 1074.67C585.2 1031.07 586.667 1024.67 586.667 994.667C586.667 972.134 586.533 970.667 581.733 952.267C578.933 941.734 576.133 928.267 575.333 922.267C573.6 908.134 573.6 880.267 575.467 867.067C576.8 857.2 583.067 836 587.867 824.933C589.733 820.8 589.733 820 588.133 820C583.733 820 575.2 833.867 570.267 848.933C564.667 866 562.933 882.4 563.867 909.2C564.4 922.8 564.933 936 565.067 938.4L565.333 942.667L537.333 956C493.333 977.067 436.133 1007.87 385.333 1037.87C350.533 1058.4 294.667 1095.6 290.933 1100.53C290.4 1101.33 290.267 1108.67 290.667 1116.93C292 1139.47 288.4 1163.47 281.333 1179.33C274.533 1194.93 257.2 1215.73 242.8 1225.87C233.2 1232.67 212.933 1241.47 197.6 1245.6C183.2 1249.6 148 1249.87 133.467 1246.27C110.667 1240.53 86.1334 1224.67 61.3334 1199.33C35.6 1173.47 26.2667 1156.13 18.6667 1120.67C9.73336 1079.2 19.6 1044 48.9334 1012.53C67.6 992.667 93.8667 979.333 125.2 974C148 970.134 161.6 972.267 179.867 982.8C186.133 986.4 192 989.333 192.8 989.333C193.733 989.333 198.267 986.4 203.2 982.933C212 976.533 265.333 940.4 310 910.533C322.8 902 343.2 888.8 355.333 881.067C389.333 859.734 395.6 855.734 434.4 830.133C475.867 802.933 558.267 750.4 575.867 740.133C605.733 722.667 634.4 710.4 682.933 694.8C710.133 686 713.067 684.667 719.067 679.333C722.533 676.133 727.2 671.067 729.333 668L733.067 662.533L733.2 639.333C733.333 616.8 733.467 616.133 736 616.667C737.467 617.067 746.8 617.867 756.533 618.667Z" fill="white"/>
<path d="M856.667 13.8667C879.6 17.0667 901.067 22.2666 928.133 31.3333C964.8 43.5999 996.8 58.3999 1022.67 75.2C1060.8 100.133 1101.33 146.133 1123.87 190.667C1134 210.533 1137.6 220.4 1143.87 244.667L1149.33 266L1149.2 296.667C1149.07 329.6 1147.2 345.733 1139.87 376C1132.53 405.6 1124.8 421.867 1100.93 458C1085.73 481.067 1082.4 485.067 1064.13 503.333C1043.07 524.4 1025.73 538.267 1005.33 550.4C965.867 573.867 907.467 595.067 862.533 602.267C841.333 605.734 754.667 605.734 733.467 602.267C688.533 595.067 630.133 573.867 590.667 550.4C570.267 538.267 552.933 524.4 531.867 503.333C513.6 485.067 510.267 481.067 495.067 458C471.2 421.867 463.467 405.6 456.133 376C448.8 345.733 446.933 329.6 446.8 296.667L446.667 266L452.133 244.667C458.4 220.4 462 210.533 472.133 190.667C494.667 146.133 535.2 100.133 573.333 75.2C623.6 42.6667 696.933 17.2 756 12C775.467 10.2666 839.867 11.4666 856.667 13.8667Z" fill="black"/>
<path d="M856.667 13.8667C879.6 17.0667 901.067 22.2666 928.133 31.3333C964.8 43.5999 996.8 58.3999 1022.67 75.2C1060.8 100.133 1101.33 146.133 1123.87 190.667C1134 210.533 1137.6 220.4 1143.87 244.667L1149.33 266L1149.2 296.667C1149.07 329.6 1147.2 345.733 1139.87 376C1132.53 405.6 1124.8 421.867 1100.93 458C1085.73 481.067 1082.4 485.067 1064.13 503.333C1043.07 524.4 1025.73 538.267 1005.33 550.4C965.867 573.867 907.467 595.067 862.533 602.267C841.333 605.734 754.667 605.734 733.467 602.267C688.533 595.067 630.133 573.867 590.667 550.4C570.267 538.267 552.933 524.4 531.867 503.333C513.6 485.067 510.267 481.067 495.067 458C471.2 421.867 463.467 405.6 456.133 376C448.8 345.733 446.933 329.6 446.8 296.667L446.667 266L452.133 244.667C458.4 220.4 462 210.533 472.133 190.667C494.667 146.133 535.2 100.133 573.333 75.2C623.6 42.6667 696.933 17.2 756 12C775.467 10.2666 839.867 11.4666 856.667 13.8667Z" fill="white"/>
</svg>
